<!-- created by svgstack.com | Attribution is required. --><svg width="201" height="201" viewBox="0 0 201 201" fill="none" xmlns="http://www.w3.org/2000/svg"><path d="M100.833 0H100.378C45.2753 0 0.605713 44.6827 0.605713 99.8017V100.257C0.605713 155.376 45.2753 200.059 100.378 200.059H100.833C155.936 200.059 200.606 155.376 200.606 100.257V99.8017C200.606 44.6827 155.936 0 100.833 0Z" fill="#00E510"/><path d="M120.096 129.289C94.4991 129.289 73.6744 108.451 73.6674 82.8468C73.6744 76.3564 78.9577 71.0786 85.4321 71.0786C86.0978 71.0786 86.7564 71.1347 87.387 71.2468C88.7744 71.4781 90.0918 71.9477 91.304 72.6556C91.4791 72.7608 91.5982 72.929 91.6263 73.1253L94.3309 90.1782C94.366 90.3815 94.3029 90.5777 94.1698 90.7249C92.6773 92.3791 90.7714 93.5706 88.6483 94.1664L87.6253 94.4537L88.0106 95.442C91.5001 104.329 98.6052 111.43 107.497 114.934L108.485 115.327L108.772 114.303C109.368 112.18 110.559 110.273 112.213 108.78C112.332 108.668 112.493 108.612 112.654 108.612C112.689 108.612 112.724 108.612 112.766 108.619L129.814 111.324C130.017 111.36 130.186 111.472 130.291 111.647C130.991 112.859 131.461 114.184 131.699 115.572C131.811 116.189 131.86 116.841 131.86 117.52C131.86 124.004 126.584 129.282 120.096 129.289Z" fill="#FDFDFD"/><path d="M165.487 94.4118C164.106 78.8097 156.959 64.336 145.363 53.6613C133.696 42.9234 118.561 37.0078 102.732 37.0078C67.9917 37.0078 39.7257 65.2823 39.7257 100.033C39.7257 111.696 42.9418 123.058 49.0309 132.954L35.4514 163.023L78.9296 158.39C86.4902 161.488 94.4921 163.058 102.725 163.058C104.89 163.058 107.112 162.946 109.34 162.715C111.302 162.505 113.285 162.196 115.233 161.804C144.326 155.923 165.564 130.095 165.732 100.369V100.033C165.732 98.1406 165.648 96.2482 165.48 94.4118H165.487ZM80.6043 145.192L56.5494 147.758L63.7316 131.84L62.2951 129.913C62.19 129.772 62.0849 129.632 61.9658 129.471C55.7296 120.857 52.4362 110.68 52.4362 100.04C52.4362 72.2983 74.9987 49.7292 102.732 49.7292C128.714 49.7292 150.737 70.0063 152.86 95.8907C152.972 97.2785 153.035 98.6733 153.035 100.047C153.035 100.44 153.028 100.825 153.021 101.239C152.489 124.446 136.282 144.155 113.607 149.173C111.876 149.559 110.104 149.853 108.338 150.043C106.502 150.253 104.617 150.358 102.746 150.358C96.0827 150.358 89.6083 149.068 83.4912 146.517C82.8115 146.244 82.1458 145.949 81.5222 145.648L80.6113 145.206L80.6043 145.192Z" fill="#FDFDFD"/></svg> 