<svg width="736" height="448" viewBox="0 0 736 448" fill="none" xmlns="http://www.w3.org/2000/svg">
<rect width="736" height="448" fill="#27272A"/>
<mask id="path-2-outside-1_36_2" maskUnits="userSpaceOnUse" x="263" y="393" width="197" height="26" fill="black">
<rect fill="white" x="263" y="393" width="197" height="26"/>
<path d="M264.635 412.881V410.306L273.749 395.909H275.778V399.699H274.49L267.971 410.018V410.183H280.463V412.881H264.635ZM274.634 417V412.098L274.655 410.924V395.909H277.672V417H274.634ZM291.395 417.35C289.768 417.343 288.377 416.914 287.224 416.063C286.071 415.212 285.188 413.972 284.577 412.345C283.966 410.718 283.661 408.758 283.661 406.465C283.661 404.179 283.966 402.225 284.577 400.605C285.195 398.985 286.081 397.749 287.234 396.898C288.395 396.046 289.781 395.621 291.395 395.621C293.008 395.621 294.392 396.05 295.545 396.908C296.699 397.759 297.581 398.995 298.192 400.615C298.81 402.229 299.119 404.179 299.119 406.465C299.119 408.765 298.813 410.728 298.202 412.355C297.591 413.976 296.709 415.215 295.555 416.073C294.402 416.924 293.015 417.35 291.395 417.35ZM291.395 414.6C292.823 414.6 293.939 413.904 294.742 412.51C295.552 411.116 295.957 409.101 295.957 406.465C295.957 404.714 295.772 403.235 295.401 402.026C295.037 400.811 294.512 399.891 293.825 399.266C293.146 398.635 292.335 398.319 291.395 398.319C289.974 398.319 288.858 399.019 288.048 400.42C287.238 401.82 286.829 403.835 286.822 406.465C286.822 408.222 287.004 409.709 287.368 410.924C287.739 412.132 288.264 413.049 288.944 413.674C289.624 414.292 290.441 414.6 291.395 414.6ZM302.329 412.881V410.306L311.443 395.909H313.472V399.699H312.185L305.666 410.018V410.183H318.158V412.881H302.329ZM312.329 417V412.098L312.349 410.924V395.909H315.367V417H312.329ZM332.542 407.608V417H329.463V401.182H332.418V403.756H332.614C332.978 402.919 333.548 402.246 334.323 401.738C335.106 401.23 336.091 400.976 337.279 400.976C338.357 400.976 339.301 401.202 340.111 401.656C340.921 402.102 341.549 402.768 341.996 403.653C342.442 404.539 342.665 405.634 342.665 406.939V417H339.586V407.309C339.586 406.163 339.287 405.267 338.69 404.621C338.093 403.969 337.272 403.643 336.229 403.643C335.515 403.643 334.879 403.798 334.323 404.107C333.774 404.415 333.338 404.869 333.015 405.466C332.7 406.056 332.542 406.77 332.542 407.608ZM353.458 417.319C351.975 417.319 350.68 416.979 349.575 416.3C348.47 415.62 347.612 414.669 347.001 413.447C346.39 412.225 346.084 410.797 346.084 409.163C346.084 407.522 346.39 406.087 347.001 404.858C347.612 403.629 348.47 402.675 349.575 401.995C350.68 401.316 351.975 400.976 353.458 400.976C354.941 400.976 356.235 401.316 357.34 401.995C358.445 402.675 359.304 403.629 359.915 404.858C360.526 406.087 360.831 407.522 360.831 409.163C360.831 410.797 360.526 412.225 359.915 413.447C359.304 414.669 358.445 415.62 357.34 416.3C356.235 416.979 354.941 417.319 353.458 417.319ZM353.468 414.734C354.429 414.734 355.225 414.48 355.857 413.972C356.489 413.464 356.956 412.788 357.258 411.944C357.567 411.099 357.721 410.169 357.721 409.153C357.721 408.143 357.567 407.217 357.258 406.372C356.956 405.521 356.489 404.838 355.857 404.323C355.225 403.808 354.429 403.55 353.468 403.55C352.5 403.55 351.697 403.808 351.058 404.323C350.426 404.838 349.956 405.521 349.647 406.372C349.345 407.217 349.194 408.143 349.194 409.153C349.194 410.169 349.345 411.099 349.647 411.944C349.956 412.788 350.426 413.464 351.058 413.972C351.697 414.48 352.5 414.734 353.468 414.734ZM371.652 401.182V403.653H363.012V401.182H371.652ZM365.329 397.392H368.408V412.355C368.408 412.953 368.497 413.402 368.676 413.705C368.854 414 369.084 414.202 369.366 414.312C369.654 414.415 369.967 414.467 370.303 414.467C370.55 414.467 370.766 414.449 370.952 414.415C371.137 414.381 371.281 414.353 371.384 414.333L371.94 416.876C371.762 416.945 371.508 417.014 371.178 417.082C370.849 417.158 370.437 417.199 369.943 417.206C369.132 417.22 368.377 417.076 367.677 416.773C366.977 416.471 366.41 416.004 365.978 415.373C365.545 414.741 365.329 413.948 365.329 412.994V397.392ZM390.261 401.182V403.653H381.322V401.182H390.261ZM383.773 417V399.349C383.773 398.36 383.989 397.54 384.422 396.887C384.854 396.228 385.428 395.737 386.142 395.415C386.856 395.085 387.632 394.92 388.469 394.92C389.087 394.92 389.616 394.972 390.055 395.075C390.495 395.171 390.821 395.26 391.033 395.343L390.313 397.835C390.168 397.794 389.983 397.746 389.756 397.691C389.53 397.629 389.255 397.598 388.933 397.598C388.184 397.598 387.649 397.783 387.326 398.154C387.01 398.525 386.852 399.06 386.852 399.761V417H383.773ZM399.478 417.319C397.995 417.319 396.701 416.979 395.596 416.3C394.49 415.62 393.632 414.669 393.021 413.447C392.41 412.225 392.104 410.797 392.104 409.163C392.104 407.522 392.41 406.087 393.021 404.858C393.632 403.629 394.49 402.675 395.596 401.995C396.701 401.316 397.995 400.976 399.478 400.976C400.961 400.976 402.255 401.316 403.361 401.995C404.466 402.675 405.324 403.629 405.935 404.858C406.546 406.087 406.852 407.522 406.852 409.163C406.852 410.797 406.546 412.225 405.935 413.447C405.324 414.669 404.466 415.62 403.361 416.3C402.255 416.979 400.961 417.319 399.478 417.319ZM399.488 414.734C400.45 414.734 401.246 414.48 401.878 413.972C402.509 413.464 402.976 412.788 403.278 411.944C403.587 411.099 403.742 410.169 403.742 409.153C403.742 408.143 403.587 407.217 403.278 406.372C402.976 405.521 402.509 404.838 401.878 404.323C401.246 403.808 400.45 403.55 399.488 403.55C398.52 403.55 397.717 403.808 397.079 404.323C396.447 404.838 395.977 405.521 395.668 406.372C395.366 407.217 395.215 408.143 395.215 409.153C395.215 410.169 395.366 411.099 395.668 411.944C395.977 412.788 396.447 413.464 397.079 413.972C397.717 414.48 398.52 414.734 399.488 414.734ZM420.309 410.44V401.182H423.398V417H420.371V414.261H420.206C419.842 415.105 419.259 415.809 418.455 416.372C417.659 416.928 416.667 417.206 415.479 417.206C414.463 417.206 413.564 416.983 412.781 416.537C412.005 416.083 411.394 415.414 410.948 414.528C410.508 413.643 410.289 412.548 410.289 411.243V401.182H413.368V410.873C413.368 411.95 413.667 412.809 414.264 413.447C414.861 414.086 415.637 414.405 416.591 414.405C417.168 414.405 417.741 414.261 418.311 413.972C418.888 413.684 419.365 413.248 419.743 412.664C420.127 412.081 420.316 411.339 420.309 410.44ZM430.615 407.608V417H427.536V401.182H430.491V403.756H430.687C431.051 402.919 431.621 402.246 432.397 401.738C433.179 401.23 434.164 400.976 435.352 400.976C436.43 400.976 437.374 401.202 438.184 401.656C438.994 402.102 439.623 402.768 440.069 403.653C440.515 404.539 440.738 405.634 440.738 406.939V417H437.659V407.309C437.659 406.163 437.36 405.267 436.763 404.621C436.166 403.969 435.345 403.643 434.302 403.643C433.588 403.643 432.953 403.798 432.397 404.107C431.847 404.415 431.411 404.869 431.089 405.466C430.773 406.056 430.615 406.77 430.615 407.608ZM450.789 417.309C449.512 417.309 448.373 416.983 447.37 416.331C446.375 415.672 445.592 414.734 445.022 413.519C444.459 412.297 444.178 410.831 444.178 409.122C444.178 407.412 444.463 405.95 445.033 404.735C445.609 403.52 446.399 402.589 447.401 401.944C448.404 401.299 449.54 400.976 450.81 400.976C451.792 400.976 452.581 401.141 453.179 401.47C453.783 401.793 454.25 402.17 454.579 402.603C454.916 403.036 455.176 403.417 455.362 403.746H455.547V395.909H458.626V417H455.619V414.539H455.362C455.176 414.875 454.909 415.26 454.559 415.692C454.215 416.125 453.742 416.502 453.137 416.825C452.533 417.148 451.751 417.309 450.789 417.309ZM451.469 414.683C452.355 414.683 453.103 414.449 453.714 413.983C454.332 413.509 454.799 412.853 455.115 412.016C455.437 411.178 455.599 410.203 455.599 409.091C455.599 407.992 455.441 407.031 455.125 406.207C454.809 405.384 454.346 404.742 453.735 404.282C453.124 403.822 452.368 403.592 451.469 403.592C450.542 403.592 449.77 403.832 449.152 404.312C448.534 404.793 448.067 405.449 447.751 406.279C447.442 407.11 447.288 408.047 447.288 409.091C447.288 410.148 447.446 411.099 447.762 411.944C448.077 412.788 448.544 413.457 449.162 413.952C449.787 414.439 450.556 414.683 451.469 414.683Z"/>
</mask>
<path d="M264.635 412.881V410.306L273.749 395.909H275.778V399.699H274.49L267.971 410.018V410.183H280.463V412.881H264.635ZM274.634 417V412.098L274.655 410.924V395.909H277.672V417H274.634ZM291.395 417.35C289.768 417.343 288.377 416.914 287.224 416.063C286.071 415.212 285.188 413.972 284.577 412.345C283.966 410.718 283.661 408.758 283.661 406.465C283.661 404.179 283.966 402.225 284.577 400.605C285.195 398.985 286.081 397.749 287.234 396.898C288.395 396.046 289.781 395.621 291.395 395.621C293.008 395.621 294.392 396.05 295.545 396.908C296.699 397.759 297.581 398.995 298.192 400.615C298.81 402.229 299.119 404.179 299.119 406.465C299.119 408.765 298.813 410.728 298.202 412.355C297.591 413.976 296.709 415.215 295.555 416.073C294.402 416.924 293.015 417.35 291.395 417.35ZM291.395 414.6C292.823 414.6 293.939 413.904 294.742 412.51C295.552 411.116 295.957 409.101 295.957 406.465C295.957 404.714 295.772 403.235 295.401 402.026C295.037 400.811 294.512 399.891 293.825 399.266C293.146 398.635 292.335 398.319 291.395 398.319C289.974 398.319 288.858 399.019 288.048 400.42C287.238 401.82 286.829 403.835 286.822 406.465C286.822 408.222 287.004 409.709 287.368 410.924C287.739 412.132 288.264 413.049 288.944 413.674C289.624 414.292 290.441 414.6 291.395 414.6ZM302.329 412.881V410.306L311.443 395.909H313.472V399.699H312.185L305.666 410.018V410.183H318.158V412.881H302.329ZM312.329 417V412.098L312.349 410.924V395.909H315.367V417H312.329ZM332.542 407.608V417H329.463V401.182H332.418V403.756H332.614C332.978 402.919 333.548 402.246 334.323 401.738C335.106 401.23 336.091 400.976 337.279 400.976C338.357 400.976 339.301 401.202 340.111 401.656C340.921 402.102 341.549 402.768 341.996 403.653C342.442 404.539 342.665 405.634 342.665 406.939V417H339.586V407.309C339.586 406.163 339.287 405.267 338.69 404.621C338.093 403.969 337.272 403.643 336.229 403.643C335.515 403.643 334.879 403.798 334.323 404.107C333.774 404.415 333.338 404.869 333.015 405.466C332.7 406.056 332.542 406.77 332.542 407.608ZM353.458 417.319C351.975 417.319 350.68 416.979 349.575 416.3C348.47 415.62 347.612 414.669 347.001 413.447C346.39 412.225 346.084 410.797 346.084 409.163C346.084 407.522 346.39 406.087 347.001 404.858C347.612 403.629 348.47 402.675 349.575 401.995C350.68 401.316 351.975 400.976 353.458 400.976C354.941 400.976 356.235 401.316 357.34 401.995C358.445 402.675 359.304 403.629 359.915 404.858C360.526 406.087 360.831 407.522 360.831 409.163C360.831 410.797 360.526 412.225 359.915 413.447C359.304 414.669 358.445 415.62 357.34 416.3C356.235 416.979 354.941 417.319 353.458 417.319ZM353.468 414.734C354.429 414.734 355.225 414.48 355.857 413.972C356.489 413.464 356.956 412.788 357.258 411.944C357.567 411.099 357.721 410.169 357.721 409.153C357.721 408.143 357.567 407.217 357.258 406.372C356.956 405.521 356.489 404.838 355.857 404.323C355.225 403.808 354.429 403.55 353.468 403.55C352.5 403.55 351.697 403.808 351.058 404.323C350.426 404.838 349.956 405.521 349.647 406.372C349.345 407.217 349.194 408.143 349.194 409.153C349.194 410.169 349.345 411.099 349.647 411.944C349.956 412.788 350.426 413.464 351.058 413.972C351.697 414.48 352.5 414.734 353.468 414.734ZM371.652 401.182V403.653H363.012V401.182H371.652ZM365.329 397.392H368.408V412.355C368.408 412.953 368.497 413.402 368.676 413.705C368.854 414 369.084 414.202 369.366 414.312C369.654 414.415 369.967 414.467 370.303 414.467C370.55 414.467 370.766 414.449 370.952 414.415C371.137 414.381 371.281 414.353 371.384 414.333L371.94 416.876C371.762 416.945 371.508 417.014 371.178 417.082C370.849 417.158 370.437 417.199 369.943 417.206C369.132 417.22 368.377 417.076 367.677 416.773C366.977 416.471 366.41 416.004 365.978 415.373C365.545 414.741 365.329 413.948 365.329 412.994V397.392ZM390.261 401.182V403.653H381.322V401.182H390.261ZM383.773 417V399.349C383.773 398.36 383.989 397.54 384.422 396.887C384.854 396.228 385.428 395.737 386.142 395.415C386.856 395.085 387.632 394.92 388.469 394.92C389.087 394.92 389.616 394.972 390.055 395.075C390.495 395.171 390.821 395.26 391.033 395.343L390.313 397.835C390.168 397.794 389.983 397.746 389.756 397.691C389.53 397.629 389.255 397.598 388.933 397.598C388.184 397.598 387.649 397.783 387.326 398.154C387.01 398.525 386.852 399.06 386.852 399.761V417H383.773ZM399.478 417.319C397.995 417.319 396.701 416.979 395.596 416.3C394.49 415.62 393.632 414.669 393.021 413.447C392.41 412.225 392.104 410.797 392.104 409.163C392.104 407.522 392.41 406.087 393.021 404.858C393.632 403.629 394.49 402.675 395.596 401.995C396.701 401.316 397.995 400.976 399.478 400.976C400.961 400.976 402.255 401.316 403.361 401.995C404.466 402.675 405.324 403.629 405.935 404.858C406.546 406.087 406.852 407.522 406.852 409.163C406.852 410.797 406.546 412.225 405.935 413.447C405.324 414.669 404.466 415.62 403.361 416.3C402.255 416.979 400.961 417.319 399.478 417.319ZM399.488 414.734C400.45 414.734 401.246 414.48 401.878 413.972C402.509 413.464 402.976 412.788 403.278 411.944C403.587 411.099 403.742 410.169 403.742 409.153C403.742 408.143 403.587 407.217 403.278 406.372C402.976 405.521 402.509 404.838 401.878 404.323C401.246 403.808 400.45 403.55 399.488 403.55C398.52 403.55 397.717 403.808 397.079 404.323C396.447 404.838 395.977 405.521 395.668 406.372C395.366 407.217 395.215 408.143 395.215 409.153C395.215 410.169 395.366 411.099 395.668 411.944C395.977 412.788 396.447 413.464 397.079 413.972C397.717 414.48 398.52 414.734 399.488 414.734ZM420.309 410.44V401.182H423.398V417H420.371V414.261H420.206C419.842 415.105 419.259 415.809 418.455 416.372C417.659 416.928 416.667 417.206 415.479 417.206C414.463 417.206 413.564 416.983 412.781 416.537C412.005 416.083 411.394 415.414 410.948 414.528C410.508 413.643 410.289 412.548 410.289 411.243V401.182H413.368V410.873C413.368 411.95 413.667 412.809 414.264 413.447C414.861 414.086 415.637 414.405 416.591 414.405C417.168 414.405 417.741 414.261 418.311 413.972C418.888 413.684 419.365 413.248 419.743 412.664C420.127 412.081 420.316 411.339 420.309 410.44ZM430.615 407.608V417H427.536V401.182H430.491V403.756H430.687C431.051 402.919 431.621 402.246 432.397 401.738C433.179 401.23 434.164 400.976 435.352 400.976C436.43 400.976 437.374 401.202 438.184 401.656C438.994 402.102 439.623 402.768 440.069 403.653C440.515 404.539 440.738 405.634 440.738 406.939V417H437.659V407.309C437.659 406.163 437.36 405.267 436.763 404.621C436.166 403.969 435.345 403.643 434.302 403.643C433.588 403.643 432.953 403.798 432.397 404.107C431.847 404.415 431.411 404.869 431.089 405.466C430.773 406.056 430.615 406.77 430.615 407.608ZM450.789 417.309C449.512 417.309 448.373 416.983 447.37 416.331C446.375 415.672 445.592 414.734 445.022 413.519C444.459 412.297 444.178 410.831 444.178 409.122C444.178 407.412 444.463 405.95 445.033 404.735C445.609 403.52 446.399 402.589 447.401 401.944C448.404 401.299 449.54 400.976 450.81 400.976C451.792 400.976 452.581 401.141 453.179 401.47C453.783 401.793 454.25 402.17 454.579 402.603C454.916 403.036 455.176 403.417 455.362 403.746H455.547V395.909H458.626V417H455.619V414.539H455.362C455.176 414.875 454.909 415.26 454.559 415.692C454.215 416.125 453.742 416.502 453.137 416.825C452.533 417.148 451.751 417.309 450.789 417.309ZM451.469 414.683C452.355 414.683 453.103 414.449 453.714 413.983C454.332 413.509 454.799 412.853 455.115 412.016C455.437 411.178 455.599 410.203 455.599 409.091C455.599 407.992 455.441 407.031 455.125 406.207C454.809 405.384 454.346 404.742 453.735 404.282C453.124 403.822 452.368 403.592 451.469 403.592C450.542 403.592 449.77 403.832 449.152 404.312C448.534 404.793 448.067 405.449 447.751 406.279C447.442 407.11 447.288 408.047 447.288 409.091C447.288 410.148 447.446 411.099 447.762 411.944C448.077 412.788 448.544 413.457 449.162 413.952C449.787 414.439 450.556 414.683 451.469 414.683Z" fill="#B2B2B4"/>
<path d="M264.635 412.881H263.635V413.881H264.635V412.881ZM264.635 410.306L263.79 409.771L263.635 410.016V410.306H264.635ZM273.749 395.909V394.909H273.198L272.904 395.374L273.749 395.909ZM275.778 395.909H276.778V394.909H275.778V395.909ZM275.778 399.699V400.699H276.778V399.699H275.778ZM274.49 399.699V398.699H273.939L273.645 399.165L274.49 399.699ZM267.971 410.018L267.126 409.484L266.971 409.728V410.018H267.971ZM267.971 410.183H266.971V411.183H267.971V410.183ZM280.463 410.183H281.463V409.183H280.463V410.183ZM280.463 412.881V413.881H281.463V412.881H280.463ZM274.634 417H273.634V418H274.634V417ZM274.634 412.098L273.635 412.08L273.634 412.089V412.098H274.634ZM274.655 410.924L275.655 410.942L275.655 410.933V410.924H274.655ZM274.655 395.909V394.909H273.655V395.909H274.655ZM277.672 395.909H278.672V394.909H277.672V395.909ZM277.672 417V418H278.672V417H277.672ZM265.635 412.881V410.306H263.635V412.881H265.635ZM265.48 410.841L274.594 396.444L272.904 395.374L263.79 409.771L265.48 410.841ZM273.749 396.909H275.778V394.909H273.749V396.909ZM274.778 395.909V399.699H276.778V395.909H274.778ZM275.778 398.699H274.49V400.699H275.778V398.699ZM273.645 399.165L267.126 409.484L268.817 410.552L275.336 400.233L273.645 399.165ZM266.971 410.018V410.183H268.971V410.018H266.971ZM267.971 411.183H280.463V409.183H267.971V411.183ZM279.463 410.183V412.881H281.463V410.183H279.463ZM280.463 411.881H264.635V413.881H280.463V411.881ZM275.634 417V412.098H273.634V417H275.634ZM275.634 412.116L275.655 410.942L273.655 410.906L273.635 412.08L275.634 412.116ZM275.655 410.924V395.909H273.655V410.924H275.655ZM274.655 396.909H277.672V394.909H274.655V396.909ZM276.672 395.909V417H278.672V395.909H276.672ZM277.672 416H274.634V418H277.672V416ZM291.395 417.35L291.391 418.35H291.395V417.35ZM284.577 412.345L285.514 411.994L284.577 412.345ZM284.577 400.605L283.643 400.249L283.642 400.252L284.577 400.605ZM287.234 396.898L286.643 396.091L286.641 396.093L287.234 396.898ZM295.545 396.908L294.948 397.71L294.951 397.713L295.545 396.908ZM298.192 400.615L297.256 400.968L297.258 400.973L298.192 400.615ZM298.202 412.355L299.138 412.708L299.138 412.707L298.202 412.355ZM295.555 416.073L296.149 416.878L296.152 416.875L295.555 416.073ZM294.742 412.51L293.877 412.007L293.875 412.011L294.742 412.51ZM295.401 402.026L294.443 402.313L294.445 402.32L295.401 402.026ZM293.825 399.266L293.145 399.999L293.152 400.006L293.825 399.266ZM288.048 400.42L287.182 399.919H287.182L288.048 400.42ZM286.822 406.465L285.822 406.462V406.465H286.822ZM287.368 410.924L286.41 411.211L286.412 411.217L287.368 410.924ZM288.944 413.674L288.267 414.41L288.271 414.414L288.944 413.674ZM291.399 416.35C289.954 416.344 288.778 415.967 287.818 415.258L286.63 416.867C287.977 417.861 289.581 418.342 291.391 418.35L291.399 416.35ZM287.818 415.258C286.85 414.544 286.071 413.479 285.514 411.994L283.641 412.697C284.306 414.466 285.291 415.879 286.63 416.867L287.818 415.258ZM285.514 411.994C284.956 410.508 284.661 408.674 284.661 406.465H282.661C282.661 408.842 282.977 410.928 283.641 412.697L285.514 411.994ZM284.661 406.465C284.661 404.263 284.956 402.436 285.513 400.958L283.642 400.252C282.977 402.015 282.661 404.095 282.661 406.465H284.661ZM285.512 400.961C286.076 399.482 286.859 398.418 287.828 397.702L286.641 396.093C285.303 397.08 284.315 398.487 283.643 400.249L285.512 400.961ZM287.826 397.704C288.794 396.994 289.967 396.621 291.395 396.621V394.621C289.596 394.621 287.995 395.099 286.643 396.091L287.826 397.704ZM291.395 396.621C292.821 396.621 293.988 396.996 294.948 397.71L296.142 396.106C294.795 395.104 293.196 394.621 291.395 394.621V396.621ZM294.951 397.713C295.92 398.428 296.699 399.491 297.256 400.968L299.127 400.263C298.463 398.5 297.477 397.091 296.139 396.103L294.951 397.713ZM297.258 400.973C297.82 402.442 298.119 404.264 298.119 406.465H300.119C300.119 404.094 299.799 402.016 299.126 400.258L297.258 400.973ZM298.119 406.465C298.119 408.681 297.824 410.519 297.266 412.004L299.138 412.707C299.803 410.938 300.119 408.848 300.119 406.465H298.119ZM297.266 412.003C296.709 413.481 295.929 414.548 294.958 415.271L296.152 416.875C297.488 415.881 298.473 414.471 299.138 412.708L297.266 412.003ZM294.962 415.269C294.002 415.977 292.83 416.35 291.395 416.35V418.35C293.2 418.35 294.802 417.872 296.149 416.878L294.962 415.269ZM291.395 415.6C293.232 415.6 294.654 414.666 295.608 413.009L293.875 412.011C293.224 413.142 292.414 413.6 291.395 413.6V415.6ZM295.606 413.012C296.545 411.398 296.957 409.177 296.957 406.465H294.957C294.957 409.025 294.559 410.834 293.877 412.007L295.606 413.012ZM296.957 406.465C296.957 404.65 296.766 403.065 296.357 401.733L294.445 402.32C294.778 403.404 294.957 404.778 294.957 406.465H296.957ZM296.359 401.739C295.961 400.412 295.36 399.311 294.498 398.527L293.152 400.006C293.664 400.472 294.113 401.211 294.443 402.313L296.359 401.739ZM294.506 398.534C293.639 397.728 292.584 397.319 291.395 397.319V399.319C292.087 399.319 292.653 399.542 293.145 399.999L294.506 398.534ZM291.395 397.319C289.561 397.319 288.141 398.261 287.182 399.919L288.914 400.92C289.575 399.778 290.386 399.319 291.395 399.319V397.319ZM287.182 399.919C286.246 401.538 285.83 403.756 285.822 406.462L287.822 406.467C287.829 403.915 288.23 402.103 288.914 400.92L287.182 399.919ZM285.822 406.465C285.822 408.285 286.01 409.875 286.41 411.211L288.326 410.637C287.999 409.543 287.822 408.16 287.822 406.465H285.822ZM286.412 411.217C286.817 412.535 287.417 413.629 288.267 414.41L289.621 412.937C289.111 412.469 288.661 411.729 288.324 410.631L286.412 411.217ZM288.271 414.414C289.143 415.206 290.202 415.6 291.395 415.6V413.6C290.679 413.6 290.104 413.377 289.617 412.934L288.271 414.414ZM302.329 412.881H301.329V413.881H302.329V412.881ZM302.329 410.306L301.484 409.771L301.329 410.016V410.306H302.329ZM311.443 395.909V394.909H310.893L310.598 395.374L311.443 395.909ZM313.472 395.909H314.472V394.909H313.472V395.909ZM313.472 399.699V400.699H314.472V399.699H313.472ZM312.185 399.699V398.699H311.633L311.339 399.165L312.185 399.699ZM305.666 410.018L304.82 409.484L304.666 409.728V410.018H305.666ZM305.666 410.183H304.666V411.183H305.666V410.183ZM318.158 410.183H319.158V409.183H318.158V410.183ZM318.158 412.881V413.881H319.158V412.881H318.158ZM312.329 417H311.329V418H312.329V417ZM312.329 412.098L311.329 412.08L311.329 412.089V412.098H312.329ZM312.349 410.924L313.349 410.942L313.349 410.933V410.924H312.349ZM312.349 395.909V394.909H311.349V395.909H312.349ZM315.367 395.909H316.367V394.909H315.367V395.909ZM315.367 417V418H316.367V417H315.367ZM303.329 412.881V410.306H301.329V412.881H303.329ZM303.174 410.841L312.288 396.444L310.598 395.374L301.484 409.771L303.174 410.841ZM311.443 396.909H313.472V394.909H311.443V396.909ZM312.472 395.909V399.699H314.472V395.909H312.472ZM313.472 398.699H312.185V400.699H313.472V398.699ZM311.339 399.165L304.82 409.484L306.511 410.552L313.03 400.233L311.339 399.165ZM304.666 410.018V410.183H306.666V410.018H304.666ZM305.666 411.183H318.158V409.183H305.666V411.183ZM317.158 410.183V412.881H319.158V410.183H317.158ZM318.158 411.881H302.329V413.881H318.158V411.881ZM313.329 417V412.098H311.329V417H313.329ZM313.329 412.116L313.349 410.942L311.349 410.906L311.329 412.08L313.329 412.116ZM313.349 410.924V395.909H311.349V410.924H313.349ZM312.349 396.909H315.367V394.909H312.349V396.909ZM314.367 395.909V417H316.367V395.909H314.367ZM315.367 416H312.329V418H315.367V416ZM332.542 417V418H333.542V417H332.542ZM329.463 417H328.463V418H329.463V417ZM329.463 401.182V400.182H328.463V401.182H329.463ZM332.418 401.182H333.418V400.182H332.418V401.182ZM332.418 403.756H331.418V404.756H332.418V403.756ZM332.614 403.756V404.756H333.27L333.531 404.155L332.614 403.756ZM334.323 401.738L333.779 400.899L333.775 400.901L334.323 401.738ZM340.111 401.656L339.623 402.528L339.628 402.531L340.111 401.656ZM341.996 403.653L341.103 404.103L341.996 403.653ZM342.665 417V418H343.665V417H342.665ZM339.586 417H338.586V418H339.586V417ZM338.69 404.621L337.952 405.297L337.956 405.301L338.69 404.621ZM334.323 404.107L333.838 403.232L333.833 403.235L334.323 404.107ZM333.015 405.466L332.136 404.991L332.134 404.994L333.015 405.466ZM331.542 407.608V417H333.542V407.608H331.542ZM332.542 416H329.463V418H332.542V416ZM330.463 417V401.182H328.463V417H330.463ZM329.463 402.182H332.418V400.182H329.463V402.182ZM331.418 401.182V403.756H333.418V401.182H331.418ZM332.418 404.756H332.614V402.756H332.418V404.756ZM333.531 404.155C333.816 403.499 334.256 402.977 334.871 402.575L333.775 400.901C332.839 401.515 332.14 402.338 331.697 403.358L333.531 404.155ZM334.868 402.577C335.449 402.199 336.232 401.976 337.279 401.976V399.976C335.95 399.976 334.763 400.261 333.779 400.899L334.868 402.577ZM337.279 401.976C338.214 401.976 338.984 402.171 339.623 402.528L340.599 400.783C339.617 400.234 338.5 399.976 337.279 399.976V401.976ZM339.628 402.531C340.249 402.873 340.74 403.384 341.103 404.103L342.889 403.203C342.358 402.151 341.593 401.33 340.593 400.78L339.628 402.531ZM341.103 404.103C341.46 404.813 341.665 405.743 341.665 406.939H343.665C343.665 405.525 343.424 404.266 342.889 403.203L341.103 404.103ZM341.665 406.939V417H343.665V406.939H341.665ZM342.665 416H339.586V418H342.665V416ZM340.586 417V407.309H338.586V417H340.586ZM340.586 407.309C340.586 405.99 340.239 404.823 339.424 403.942L337.956 405.301C338.335 405.711 338.586 406.336 338.586 407.309H340.586ZM339.427 403.946C338.606 403.05 337.497 402.643 336.229 402.643V404.643C337.047 404.643 337.579 404.889 337.952 405.297L339.427 403.946ZM336.229 402.643C335.366 402.643 334.56 402.831 333.838 403.232L334.809 404.981C335.199 404.764 335.663 404.643 336.229 404.643V402.643ZM333.833 403.235C333.106 403.644 332.541 404.24 332.136 404.991L333.895 405.941C334.135 405.497 334.442 405.187 334.814 404.978L333.833 403.235ZM332.134 404.994C331.723 405.762 331.542 406.646 331.542 407.608H333.542C333.542 406.894 333.676 406.351 333.897 405.938L332.134 404.994ZM347.001 413.447L347.895 413L347.001 413.447ZM349.575 401.995L350.099 402.847V402.847L349.575 401.995ZM357.34 401.995L356.816 402.847L357.34 401.995ZM359.915 413.447L359.02 413L359.915 413.447ZM357.34 416.3L357.864 417.152L357.34 416.3ZM355.857 413.972L355.23 413.193V413.193L355.857 413.972ZM357.258 411.944L356.318 411.6L356.316 411.607L357.258 411.944ZM357.258 406.372L356.315 406.707L356.319 406.716L357.258 406.372ZM355.857 404.323L355.225 405.098L355.857 404.323ZM351.058 404.323L350.43 403.544L350.426 403.548L351.058 404.323ZM349.647 406.372L348.707 406.031L348.706 406.035L349.647 406.372ZM349.647 411.944L348.706 412.28L348.708 412.287L349.647 411.944ZM351.058 413.972L350.431 414.752L350.435 414.755L351.058 413.972ZM353.458 416.319C352.133 416.319 351.025 416.017 350.099 415.448L349.051 417.152C350.336 417.941 351.817 418.319 353.458 418.319V416.319ZM350.099 415.448C349.161 414.871 348.427 414.064 347.895 413L346.106 413.894C346.796 415.274 347.779 416.369 349.051 417.152L350.099 415.448ZM347.895 413C347.366 411.941 347.084 410.672 347.084 409.163H345.084C345.084 410.922 345.413 412.509 346.106 413.894L347.895 413ZM347.084 409.163C347.084 407.647 347.366 406.37 347.896 405.304L346.105 404.413C345.413 405.805 345.084 407.398 345.084 409.163H347.084ZM347.896 405.304C348.429 404.232 349.162 403.423 350.099 402.847L349.051 401.144C347.777 401.927 346.794 403.027 346.105 404.413L347.896 405.304ZM350.099 402.847C351.025 402.278 352.133 401.976 353.458 401.976V399.976C351.817 399.976 350.336 400.354 349.051 401.144L350.099 402.847ZM353.458 401.976C354.783 401.976 355.89 402.278 356.816 402.847L357.864 401.144C356.579 400.354 355.098 399.976 353.458 399.976V401.976ZM356.816 402.847C357.753 403.423 358.486 404.232 359.019 405.304L360.81 404.413C360.121 403.027 359.138 401.927 357.864 401.144L356.816 402.847ZM359.019 405.304C359.549 406.37 359.831 407.647 359.831 409.163H361.831C361.831 407.398 361.502 405.805 360.81 404.413L359.019 405.304ZM359.831 409.163C359.831 410.672 359.549 411.941 359.02 413L360.809 413.894C361.502 412.509 361.831 410.922 361.831 409.163H359.831ZM359.02 413C358.488 414.064 357.754 414.871 356.816 415.448L357.864 417.152C359.137 416.369 360.119 415.274 360.809 413.894L359.02 413ZM356.816 415.448C355.89 416.017 354.783 416.319 353.458 416.319V418.319C355.098 418.319 356.579 417.941 357.864 417.152L356.816 415.448ZM353.468 415.734C354.613 415.734 355.643 415.428 356.484 414.752L355.23 413.193C354.808 413.533 354.245 413.734 353.468 413.734V415.734ZM356.484 414.752C357.274 414.116 357.842 413.279 358.199 412.28L356.316 411.607C356.069 412.297 355.703 412.813 355.23 413.193L356.484 414.752ZM358.197 412.287C358.551 411.319 358.721 410.271 358.721 409.153H356.721C356.721 410.067 356.582 410.879 356.319 411.6L358.197 412.287ZM358.721 409.153C358.721 408.04 358.551 406.996 358.197 406.029L356.319 406.716C356.583 407.438 356.721 408.246 356.721 409.153H358.721ZM358.2 406.038C357.844 405.033 357.278 404.191 356.489 403.548L355.225 405.098C355.7 405.485 356.068 406.009 356.315 406.707L358.2 406.038ZM356.489 403.548C355.648 402.862 354.616 402.55 353.468 402.55V404.55C354.242 404.55 354.803 404.754 355.225 405.098L356.489 403.548ZM353.468 402.55C352.314 402.55 351.277 402.861 350.43 403.544L351.686 405.101C352.116 404.754 352.685 404.55 353.468 404.55V402.55ZM350.426 403.548C349.639 404.189 349.071 405.029 348.707 406.031L350.587 406.713C350.842 406.012 351.214 405.486 351.69 405.098L350.426 403.548ZM348.706 406.035C348.36 407.001 348.194 408.043 348.194 409.153H350.194C350.194 408.244 350.33 407.433 350.589 406.709L348.706 406.035ZM348.194 409.153C348.194 410.269 348.36 411.314 348.706 412.28L350.589 411.607C350.33 410.884 350.194 410.069 350.194 409.153H348.194ZM348.708 412.287C349.073 413.283 349.643 414.117 350.431 414.752L351.685 413.193C351.21 412.811 350.84 412.293 350.586 411.6L348.708 412.287ZM350.435 414.755C351.282 415.429 352.317 415.734 353.468 415.734V413.734C352.682 413.734 352.111 413.532 351.681 413.19L350.435 414.755ZM371.652 401.182H372.652V400.182H371.652V401.182ZM371.652 403.653V404.653H372.652V403.653H371.652ZM363.012 403.653H362.012V404.653H363.012V403.653ZM363.012 401.182V400.182H362.012V401.182H363.012ZM365.329 397.392V396.392H364.329V397.392H365.329ZM368.408 397.392H369.408V396.392H368.408V397.392ZM368.676 413.705L367.815 414.213L367.82 414.222L368.676 413.705ZM369.366 414.312L369.002 415.244L369.016 415.249L369.03 415.254L369.366 414.312ZM370.952 414.415L371.134 415.398V415.398L370.952 414.415ZM371.384 414.333L372.361 414.119L372.151 413.16L371.188 413.352L371.384 414.333ZM371.94 416.876L372.299 417.81L373.101 417.502L372.917 416.663L371.94 416.876ZM371.178 417.082L370.974 416.103L370.965 416.105L370.955 416.108L371.178 417.082ZM369.943 417.206L369.929 416.206L369.926 416.206L369.943 417.206ZM367.677 416.773L367.281 417.692L367.677 416.773ZM365.978 415.373L365.153 415.938V415.938L365.978 415.373ZM370.652 401.182V403.653H372.652V401.182H370.652ZM371.652 402.653H363.012V404.653H371.652V402.653ZM364.012 403.653V401.182H362.012V403.653H364.012ZM363.012 402.182H371.652V400.182H363.012V402.182ZM365.329 398.392H368.408V396.392H365.329V398.392ZM367.408 397.392V412.355H369.408V397.392H367.408ZM367.408 412.355C367.408 413.021 367.502 413.684 367.815 414.213L369.537 413.196C369.493 413.121 369.408 412.884 369.408 412.355H367.408ZM367.82 414.222C368.096 414.678 368.487 415.043 369.002 415.244L369.729 413.381C369.682 413.362 369.613 413.322 369.532 413.187L367.82 414.222ZM369.03 415.254C369.436 415.399 369.863 415.467 370.303 415.467V413.467C370.07 413.467 369.872 413.431 369.702 413.37L369.03 415.254ZM370.303 415.467C370.594 415.467 370.873 415.447 371.134 415.398L370.77 413.432C370.66 413.452 370.507 413.467 370.303 413.467V415.467ZM371.134 415.398C371.321 415.364 371.471 415.335 371.58 415.313L371.188 413.352C371.092 413.371 370.953 413.398 370.77 413.432L371.134 415.398ZM370.407 414.546L370.964 417.09L372.917 416.663L372.361 414.119L370.407 414.546ZM371.581 415.943C371.477 415.983 371.284 416.039 370.974 416.103L371.382 418.061C371.731 417.989 372.047 417.907 372.299 417.81L371.581 415.943ZM370.955 416.108C370.718 416.162 370.382 416.2 369.929 416.206L369.956 418.206C370.492 418.198 370.98 418.154 371.402 418.057L370.955 416.108ZM369.926 416.206C369.248 416.218 368.635 416.098 368.073 415.855L367.281 417.692C368.119 418.053 369.016 418.222 369.96 418.206L369.926 416.206ZM368.073 415.855C367.547 415.628 367.129 415.284 366.803 414.808L365.153 415.938C365.691 416.725 366.406 417.314 367.281 417.692L368.073 415.855ZM366.803 414.808C366.51 414.38 366.329 413.797 366.329 412.994H364.329C364.329 414.1 364.581 415.103 365.153 415.938L366.803 414.808ZM366.329 412.994V397.392H364.329V412.994H366.329ZM390.261 401.182H391.261V400.182H390.261V401.182ZM390.261 403.653V404.653H391.261V403.653H390.261ZM381.322 403.653H380.322V404.653H381.322V403.653ZM381.322 401.182V400.182H380.322V401.182H381.322ZM383.773 417H382.773V418H383.773V417ZM384.422 396.887L385.255 397.44L385.258 397.436L384.422 396.887ZM386.142 395.415L386.554 396.326L386.561 396.323L386.142 395.415ZM390.055 395.075L389.827 396.049L389.834 396.05L389.841 396.052L390.055 395.075ZM391.033 395.343L391.994 395.621L392.249 394.741L391.394 394.41L391.033 395.343ZM390.313 397.835L390.038 398.796L390.996 399.07L391.273 398.113L390.313 397.835ZM389.756 397.691L389.493 398.655L389.507 398.659L389.521 398.663L389.756 397.691ZM387.326 398.154L386.572 397.498L386.565 397.506L387.326 398.154ZM386.852 417V418H387.852V417H386.852ZM389.261 401.182V403.653H391.261V401.182H389.261ZM390.261 402.653H381.322V404.653H390.261V402.653ZM382.322 403.653V401.182H380.322V403.653H382.322ZM381.322 402.182H390.261V400.182H381.322V402.182ZM384.773 417V399.349H382.773V417H384.773ZM384.773 399.349C384.773 398.505 384.957 397.89 385.255 397.44L383.589 396.335C383.022 397.189 382.773 398.215 382.773 399.349H384.773ZM385.258 397.436C385.587 396.935 386.014 396.57 386.554 396.326L385.73 394.504C384.842 394.905 384.122 395.522 383.586 396.339L385.258 397.436ZM386.561 396.323C387.135 396.058 387.767 395.92 388.469 395.92V393.92C387.496 393.92 386.577 394.113 385.723 394.507L386.561 396.323ZM388.469 395.92C389.036 395.92 389.484 395.968 389.827 396.049L390.283 394.101C389.747 393.976 389.138 393.92 388.469 393.92V395.92ZM389.841 396.052C390.269 396.145 390.534 396.222 390.672 396.275L391.394 394.41C391.107 394.299 390.72 394.197 390.269 394.098L389.841 396.052ZM390.073 395.065L389.352 397.557L391.273 398.113L391.994 395.621L390.073 395.065ZM390.587 396.873C390.425 396.827 390.225 396.775 389.992 396.719L389.521 398.663C389.741 398.716 389.912 398.76 390.038 398.796L390.587 396.873ZM390.02 396.726C389.682 396.634 389.314 396.598 388.933 396.598V398.598C389.197 398.598 389.378 398.624 389.493 398.655L390.02 396.726ZM388.933 396.598C388.047 396.598 387.165 396.816 386.572 397.498L388.08 398.811C388.132 398.751 388.322 398.598 388.933 398.598V396.598ZM386.565 397.506C386.04 398.122 385.852 398.925 385.852 399.761H387.852C387.852 399.196 387.981 398.927 388.087 398.803L386.565 397.506ZM385.852 399.761V417H387.852V399.761H385.852ZM386.852 416H383.773V418H386.852V416ZM393.021 413.447L393.915 413L393.021 413.447ZM395.596 401.995L396.119 402.847V402.847L395.596 401.995ZM403.361 401.995L402.837 402.847L403.361 401.995ZM405.935 413.447L405.041 413L405.935 413.447ZM403.361 416.3L403.884 417.152L403.361 416.3ZM401.878 413.972L401.251 413.193V413.193L401.878 413.972ZM403.278 411.944L402.339 411.6L402.337 411.607L403.278 411.944ZM403.278 406.372L402.336 406.707L402.339 406.716L403.278 406.372ZM401.878 404.323L401.246 405.098L401.878 404.323ZM397.079 404.323L396.451 403.544L396.447 403.548L397.079 404.323ZM395.668 406.372L394.728 406.031L394.726 406.035L395.668 406.372ZM395.668 411.944L394.726 412.28L394.729 412.287L395.668 411.944ZM397.079 413.972L396.452 414.752L396.456 414.755L397.079 413.972ZM399.478 416.319C398.153 416.319 397.046 416.017 396.119 415.448L395.072 417.152C396.356 417.941 397.837 418.319 399.478 418.319V416.319ZM396.119 415.448C395.182 414.871 394.448 414.064 393.915 413L392.127 413.894C392.816 415.274 393.799 416.369 395.072 417.152L396.119 415.448ZM393.915 413C393.386 411.941 393.104 410.672 393.104 409.163H391.104C391.104 410.922 391.434 412.509 392.127 413.894L393.915 413ZM393.104 409.163C393.104 407.647 393.386 406.37 393.916 405.304L392.126 404.413C391.434 405.805 391.104 407.398 391.104 409.163H393.104ZM393.916 405.304C394.449 404.232 395.183 403.423 396.119 402.847L395.072 401.144C393.798 401.927 392.815 403.027 392.126 404.413L393.916 405.304ZM396.119 402.847C397.046 402.278 398.153 401.976 399.478 401.976V399.976C397.837 399.976 396.356 400.354 395.072 401.144L396.119 402.847ZM399.478 401.976C400.803 401.976 401.91 402.278 402.837 402.847L403.884 401.144C402.6 400.354 401.119 399.976 399.478 399.976V401.976ZM402.837 402.847C403.773 403.423 404.507 404.232 405.04 405.304L406.831 404.413C406.141 403.027 405.159 401.927 403.884 401.144L402.837 402.847ZM405.04 405.304C405.57 406.37 405.852 407.647 405.852 409.163H407.852C407.852 407.398 407.523 405.805 406.831 404.413L405.04 405.304ZM405.852 409.163C405.852 410.672 405.57 411.941 405.041 413L406.83 413.894C407.522 412.509 407.852 410.922 407.852 409.163H405.852ZM405.041 413C404.508 414.064 403.775 414.871 402.837 415.448L403.884 417.152C405.157 416.369 406.14 415.274 406.83 413.894L405.041 413ZM402.837 415.448C401.91 416.017 400.803 416.319 399.478 416.319V418.319C401.119 418.319 402.6 417.941 403.884 417.152L402.837 415.448ZM399.488 415.734C400.633 415.734 401.663 415.428 402.504 414.752L401.251 413.193C400.828 413.533 400.266 413.734 399.488 413.734V415.734ZM402.504 414.752C403.295 414.116 403.862 413.279 404.22 412.28L402.337 411.607C402.09 412.297 401.724 412.813 401.251 413.193L402.504 414.752ZM404.217 412.287C404.571 411.319 404.742 410.271 404.742 409.153H402.742C402.742 410.067 402.603 410.879 402.339 411.6L404.217 412.287ZM404.742 409.153C404.742 408.04 404.571 406.996 404.217 406.029L402.339 406.716C402.603 407.438 402.742 408.246 402.742 409.153H404.742ZM404.221 406.038C403.864 405.033 403.298 404.191 402.509 403.548L401.246 405.098C401.72 405.485 402.088 406.009 402.336 406.707L404.221 406.038ZM402.509 403.548C401.669 402.862 400.637 402.55 399.488 402.55V404.55C400.262 404.55 400.823 404.754 401.246 405.098L402.509 403.548ZM399.488 402.55C398.335 402.55 397.298 402.861 396.451 403.544L397.706 405.101C398.136 404.754 398.706 404.55 399.488 404.55V402.55ZM396.447 403.548C395.66 404.189 395.091 405.029 394.728 406.031L396.608 406.713C396.862 406.012 397.234 405.486 397.71 405.098L396.447 403.548ZM394.726 406.035C394.381 407.001 394.215 408.043 394.215 409.153H396.215C396.215 408.244 396.35 407.433 396.609 406.709L394.726 406.035ZM394.215 409.153C394.215 410.269 394.381 411.314 394.726 412.28L396.609 411.607C396.351 410.884 396.215 410.069 396.215 409.153H394.215ZM394.729 412.287C395.093 413.283 395.663 414.117 396.452 414.752L397.705 413.193C397.231 412.811 396.86 412.293 396.607 411.6L394.729 412.287ZM396.456 414.755C397.303 415.429 398.338 415.734 399.488 415.734V413.734C398.703 413.734 398.131 413.532 397.701 413.19L396.456 414.755ZM420.309 410.44H419.309L419.309 410.448L420.309 410.44ZM420.309 401.182V400.182H419.309V401.182H420.309ZM423.398 401.182H424.398V400.182H423.398V401.182ZM423.398 417V418H424.398V417H423.398ZM420.371 417H419.371V418H420.371V417ZM420.371 414.261H421.371V413.261H420.371V414.261ZM420.206 414.261V413.261H419.548L419.288 413.865L420.206 414.261ZM418.455 416.372L419.028 417.192L419.029 417.191L418.455 416.372ZM412.781 416.537L412.277 417.4L412.286 417.405L412.781 416.537ZM410.948 414.528L410.052 414.973L410.055 414.978L410.948 414.528ZM410.289 401.182V400.182H409.289V401.182H410.289ZM413.368 401.182H414.368V400.182H413.368V401.182ZM414.264 413.447L414.994 412.764L414.264 413.447ZM418.311 413.972L417.864 413.078L417.86 413.08L418.311 413.972ZM419.743 412.664L418.907 412.114L418.903 412.121L419.743 412.664ZM421.309 410.44V401.182H419.309V410.44H421.309ZM420.309 402.182H423.398V400.182H420.309V402.182ZM422.398 401.182V417H424.398V401.182H422.398ZM423.398 416H420.371V418H423.398V416ZM421.371 417V414.261H419.371V417H421.371ZM420.371 413.261H420.206V415.261H420.371V413.261ZM419.288 413.865C419.002 414.528 418.543 415.089 417.881 415.553L419.029 417.191C419.974 416.529 420.682 415.683 421.124 414.656L419.288 413.865ZM417.883 415.552C417.289 415.967 416.508 416.206 415.479 416.206V418.206C416.825 418.206 418.029 417.889 419.028 417.192L417.883 415.552ZM415.479 416.206C414.614 416.206 413.889 416.018 413.276 415.668L412.286 417.405C413.238 417.948 414.312 418.206 415.479 418.206V416.206ZM413.285 415.673C412.693 415.327 412.21 414.81 411.841 414.078L410.055 414.978C410.579 416.018 411.317 416.84 412.277 417.4L413.285 415.673ZM411.844 414.084C411.491 413.373 411.289 412.441 411.289 411.243H409.289C409.289 412.655 409.526 413.912 410.052 414.973L411.844 414.084ZM411.289 411.243V401.182H409.289V411.243H411.289ZM410.289 402.182H413.368V400.182H410.289V402.182ZM412.368 401.182V410.873H414.368V401.182H412.368ZM412.368 410.873C412.368 412.142 412.725 413.266 413.534 414.13L414.994 412.764C414.608 412.352 414.368 411.759 414.368 410.873H412.368ZM413.534 414.13C414.338 414.991 415.388 415.405 416.591 415.405V413.405C415.886 413.405 415.384 413.181 414.994 412.764L413.534 414.13ZM416.591 415.405C417.341 415.405 418.068 415.216 418.763 414.865L417.86 413.08C417.414 413.305 416.995 413.405 416.591 413.405V415.405ZM418.758 414.867C419.507 414.492 420.115 413.929 420.582 413.208L418.903 412.121C418.615 412.567 418.268 412.876 417.864 413.078L418.758 414.867ZM420.578 413.215C421.098 412.424 421.317 411.473 421.309 410.432L419.309 410.448C419.315 411.205 419.156 411.738 418.907 412.114L420.578 413.215ZM430.615 417V418H431.615V417H430.615ZM427.536 417H426.536V418H427.536V417ZM427.536 401.182V400.182H426.536V401.182H427.536ZM430.491 401.182H431.491V400.182H430.491V401.182ZM430.491 403.756H429.491V404.756H430.491V403.756ZM430.687 403.756V404.756H431.343L431.604 404.155L430.687 403.756ZM432.397 401.738L431.852 400.899L431.849 400.901L432.397 401.738ZM438.184 401.656L437.696 402.528L437.702 402.531L438.184 401.656ZM440.069 403.653L439.176 404.103L440.069 403.653ZM440.738 417V418H441.738V417H440.738ZM437.659 417H436.659V418H437.659V417ZM436.763 404.621L436.026 405.297L436.029 405.301L436.763 404.621ZM432.397 404.107L431.911 403.232L431.906 403.235L432.397 404.107ZM431.089 405.466L430.209 404.991L430.207 404.994L431.089 405.466ZM429.615 407.608V417H431.615V407.608H429.615ZM430.615 416H427.536V418H430.615V416ZM428.536 417V401.182H426.536V417H428.536ZM427.536 402.182H430.491V400.182H427.536V402.182ZM429.491 401.182V403.756H431.491V401.182H429.491ZM430.491 404.756H430.687V402.756H430.491V404.756ZM431.604 404.155C431.889 403.499 432.329 402.977 432.944 402.575L431.849 400.901C430.912 401.515 430.213 402.338 429.77 403.358L431.604 404.155ZM432.941 402.577C433.523 402.199 434.305 401.976 435.352 401.976V399.976C434.024 399.976 432.836 400.261 431.852 400.899L432.941 402.577ZM435.352 401.976C436.287 401.976 437.058 402.171 437.696 402.528L438.672 400.783C437.691 400.234 436.573 399.976 435.352 399.976V401.976ZM437.702 402.531C438.322 402.873 438.813 403.384 439.176 404.103L440.962 403.203C440.432 402.151 439.666 401.33 438.667 400.78L437.702 402.531ZM439.176 404.103C439.533 404.813 439.738 405.743 439.738 406.939H441.738C441.738 405.525 441.497 404.266 440.962 403.203L439.176 404.103ZM439.738 406.939V417H441.738V406.939H439.738ZM440.738 416H437.659V418H440.738V416ZM438.659 417V407.309H436.659V417H438.659ZM438.659 407.309C438.659 405.99 438.312 404.823 437.497 403.942L436.029 405.301C436.408 405.711 436.659 406.336 436.659 407.309H438.659ZM437.501 403.946C436.68 403.05 435.571 402.643 434.302 402.643V404.643C435.12 404.643 435.652 404.889 436.026 405.297L437.501 403.946ZM434.302 402.643C433.439 402.643 432.633 402.831 431.911 403.232L432.882 404.981C433.272 404.764 433.737 404.643 434.302 404.643V402.643ZM431.906 403.235C431.18 403.644 430.614 404.24 430.209 404.991L431.969 405.941C432.209 405.497 432.515 405.187 432.887 404.978L431.906 403.235ZM430.207 404.994C429.796 405.762 429.615 406.646 429.615 407.608H431.615C431.615 406.894 431.749 406.351 431.97 405.938L430.207 404.994ZM447.37 416.331L446.818 417.164L446.825 417.169L447.37 416.331ZM445.022 413.519L444.114 413.938L444.117 413.944L445.022 413.519ZM445.033 404.735L444.129 404.306L444.127 404.31L445.033 404.735ZM447.401 401.944L447.943 402.785L447.401 401.944ZM453.179 401.47L452.695 402.346L452.707 402.352L453.179 401.47ZM454.579 402.603L453.784 403.209L453.79 403.217L454.579 402.603ZM455.362 403.746L454.49 404.236L454.777 404.746H455.362V403.746ZM455.547 403.746V404.746H456.547V403.746H455.547ZM455.547 395.909V394.909H454.547V395.909H455.547ZM458.626 395.909H459.626V394.909H458.626V395.909ZM458.626 417V418H459.626V417H458.626ZM455.619 417H454.619V418H455.619V417ZM455.619 414.539H456.619V413.539H455.619V414.539ZM455.362 414.539V413.539H454.771L454.486 414.056L455.362 414.539ZM454.559 415.692L453.781 415.063L453.775 415.07L454.559 415.692ZM453.714 413.983L454.321 414.777L454.322 414.776L453.714 413.983ZM455.115 412.016L454.181 411.656L454.179 411.663L455.115 412.016ZM455.125 406.207L454.191 406.565L455.125 406.207ZM453.735 404.282L453.133 405.081L453.735 404.282ZM449.152 404.312L449.766 405.102L449.152 404.312ZM447.751 406.279L446.817 405.924L446.814 405.931L447.751 406.279ZM447.762 411.944L448.698 411.593L447.762 411.944ZM449.162 413.952L448.537 414.733L448.547 414.74L449.162 413.952ZM450.789 416.309C449.692 416.309 448.745 416.032 447.916 415.492L446.825 417.169C448.001 417.934 449.332 418.309 450.789 418.309V416.309ZM447.922 415.497C447.098 414.951 446.429 414.165 445.928 413.095L444.117 413.944C444.755 415.304 445.651 416.392 446.818 417.164L447.922 415.497ZM445.931 413.101C445.442 412.04 445.178 410.725 445.178 409.122H443.178C443.178 410.938 443.477 412.554 444.114 413.938L445.931 413.101ZM445.178 409.122C445.178 407.52 445.445 406.21 445.938 405.159L444.127 404.31C443.48 405.689 443.178 407.304 443.178 409.122H445.178ZM445.936 405.163C446.443 404.095 447.116 403.317 447.943 402.785L446.86 401.103C445.681 401.862 444.775 402.945 444.129 404.306L445.936 405.163ZM447.943 402.785C448.773 402.25 449.719 401.976 450.81 401.976V399.976C449.361 399.976 448.034 400.347 446.86 401.103L447.943 402.785ZM450.81 401.976C451.692 401.976 452.297 402.126 452.695 402.346L453.662 400.595C452.866 400.155 451.891 399.976 450.81 399.976V401.976ZM452.707 402.352C453.217 402.624 453.561 402.916 453.784 403.209L455.375 401.997C454.938 401.425 454.349 400.961 453.65 400.588L452.707 402.352ZM453.79 403.217C454.108 403.626 454.337 403.964 454.49 404.236L456.233 403.256C456.016 402.869 455.723 402.445 455.368 401.989L453.79 403.217ZM455.362 404.746H455.547V402.746H455.362V404.746ZM456.547 403.746V395.909H454.547V403.746H456.547ZM455.547 396.909H458.626V394.909H455.547V396.909ZM457.626 395.909V417H459.626V395.909H457.626ZM458.626 416H455.619V418H458.626V416ZM456.619 417V414.539H454.619V417H456.619ZM455.619 413.539H455.362V415.539H455.619V413.539ZM454.486 414.056C454.339 414.324 454.109 414.658 453.781 415.063L455.336 416.321C455.708 415.861 456.014 415.427 456.238 415.021L454.486 414.056ZM453.775 415.07C453.535 415.373 453.178 415.67 452.666 415.943L453.608 417.707C454.305 417.335 454.896 416.876 455.342 416.314L453.775 415.07ZM452.666 415.943C452.254 416.163 451.649 416.309 450.789 416.309V418.309C451.852 418.309 452.813 418.132 453.608 417.707L452.666 415.943ZM451.469 415.683C452.539 415.683 453.51 415.397 454.321 414.777L453.107 413.188C452.696 413.502 452.17 413.683 451.469 413.683V415.683ZM454.322 414.776C455.11 414.173 455.679 413.354 456.05 412.368L454.179 411.663C453.919 412.353 453.554 412.845 453.106 413.189L454.322 414.776ZM456.048 412.375C456.424 411.399 456.599 410.298 456.599 409.091H454.599C454.599 410.109 454.451 410.957 454.181 411.656L456.048 412.375ZM456.599 409.091C456.599 407.899 456.428 406.812 456.059 405.849L454.191 406.565C454.454 407.251 454.599 408.086 454.599 409.091H456.599ZM456.059 405.849C455.686 404.878 455.119 404.072 454.336 403.483L453.133 405.081C453.572 405.411 453.932 405.889 454.191 406.565L456.059 405.849ZM454.336 403.483C453.523 402.87 452.546 402.592 451.469 402.592V404.592C452.191 404.592 452.725 404.773 453.133 405.081L454.336 403.483ZM451.469 402.592C450.362 402.592 449.362 402.882 448.538 403.523L449.766 405.102C450.177 404.782 450.722 404.592 451.469 404.592V402.592ZM448.538 403.523C447.757 404.131 447.189 404.946 446.817 405.924L448.686 406.635C448.946 405.952 449.311 405.455 449.766 405.102L448.538 403.523ZM446.814 405.931C446.457 406.891 446.288 407.949 446.288 409.091H448.288C448.288 408.146 448.428 407.329 448.689 406.628L446.814 405.931ZM446.288 409.091C446.288 410.248 446.461 411.32 446.825 412.294L448.698 411.593C448.431 410.878 448.288 410.049 448.288 409.091H446.288ZM446.825 412.294C447.195 413.283 447.76 414.11 448.538 414.733L449.787 413.171C449.329 412.804 448.96 412.293 448.698 411.593L446.825 412.294ZM448.547 414.74C449.374 415.385 450.369 415.683 451.469 415.683V413.683C450.743 413.683 450.2 413.493 449.777 413.163L448.547 414.74Z" fill="#474747" mask="url(#path-2-outside-1_36_2)"/>
<path d="M167 181C167.8 172.2 189 164.667 199.5 162L201.5 172C200.5 179.5 208 184 209.5 186C211 188 223 189.5 228 192.5C232 194.9 243.333 196.833 248.5 197.5L261.5 196.753C282.5 184.5 283 185.5 282.5 181.5C282 177.5 276 171 276.5 168.5C276.9 166.5 279.333 160.667 280.5 158C285 161.5 295 169.8 299 175C304 181.5 302 182.5 307 187.5C311 191.5 310 192.5 309 192.5L293.115 194.836C293.547 195.206 293.307 196.656 291 200.5C286.5 208 277 213 259 222C241 231 206.5 221.5 201.5 222C196.5 222.5 187 211 185.5 212C184 213 171 215 168.5 215C166 215 167 210.5 163.5 207.5C160 204.5 161 199.5 161.5 197.5C161.9 195.9 166.333 193.833 168.5 193C167.667 192.667 166.2 189.8 167 181Z" fill="#171717"/>
<path d="M212 174.5C212.4 172.1 211.833 171.167 211.5 171L227 172C229.833 170.833 236.4 167.2 240 162C244.5 155.5 240.5 149.5 238 144C235.5 138.5 234.5 134.5 235.5 133.5C236.5 132.5 244.5 146.5 248.5 149.5C252.5 152.5 253.5 158 252.5 162C251.5 166 229 174 221.5 176C214 178 213.5 179.5 212 180.5C210.5 181.5 211.5 177.5 212 174.5Z" fill="#171717"/>
<path d="M235.5 76.5C232.667 79 226.6 84.8 225 88C223 92 221.5 97 221.5 101.5V114.5L232.5 108C231.167 109 227.1 112.6 221.5 119C214.5 127 212.5 131 212 138.5C211.5 146 210 145.5 214.5 149.5C218.1 152.7 221.333 154.833 222.5 155.5L206.5 158L203.5 150L207.5 137.5C207.833 134 208.7 126.8 209.5 126L213 122.5C212.5 113.167 213 92.7 219 85.5C225 78.3 232.5 76.5 235.5 76.5Z" fill="#171717"/>
<path d="M240 105.5V96C240.667 95.6667 242.4 95.1 244 95.5C245.6 95.9 250 100.667 252 103C252 104 252.2 107.5 253 113.5C253.8 119.5 260 124.333 263 126L266 133.5C266.5 136.333 267.2 142.6 266 145C264.8 147.4 262.5 150.333 261.5 151.5L240 105.5Z" fill="#171717"/>
<path d="M312 181.5C310.4 178.3 309 176.167 308.5 175.5L293 147.5L314 129C313 133 310.9 141.6 310.5 144C310.1 146.4 311.667 149.667 312.5 151C313.333 152.833 315.6 157.5 318 161.5C320.4 165.5 319.667 169.5 319 171C317.333 175.833 313.6 184.7 312 181.5Z" fill="#171717"/>
<path d="M301 128L293 121L294 126L272.5 128C273.333 128.667 275.5 130 277.5 130C279.5 130 284 134.667 286 137C286.333 137.5 288.6 138 295 136C301.4 134 301.667 129.833 301 128Z" fill="#171717"/>
<path d="M286 101.5C279.6 98.3 277 97.8333 276.5 98L282.5 105.5L296.5 108C295.667 107.167 292.4 104.7 286 101.5Z" fill="#171717"/>
<path d="M322 184C323 184 326.5 171 326.5 168C326.5 165.985 323.914 162.888 322 160.96C321.667 160.64 321.3 161.2 322.5 166C324 172 321 184 322 184Z" fill="#171717"/>
<path d="M520.5 258C520.9 255.2 527 246.5 530 242.5C528.667 243.833 525.8 246.6 525 247C524 247.5 512.5 258 512.5 260.5C512.5 262.5 518.167 274.667 521 280.5C521.5 280.167 523 279.4 525 279C527 278.6 532.167 280.833 534.5 282C533.5 280.833 531 277.8 529 275C526.5 271.5 520 261.5 520.5 258Z" fill="#171717"/>
<path d="M545 259.5L554.5 251L558 252.5L560.5 266L558.5 275C558.333 274.167 557.5 272.4 555.5 272C553 271.5 551.5 275 550.5 275C549.5 275 551.5 263.5 552 261C552.5 258.5 551 257 550.5 257C550.1 257 546.667 258.667 545 259.5Z" fill="#171717"/>
<path d="M522.5 285C521.333 284 518.2 282.6 515 285C511 288 511.5 287 510.5 291C509.7 294.2 508.833 294.667 508.5 294.5C519.674 304.876 541.896 306.493 551.93 297.23C550.964 297.822 543 295.435 543 294.5C547.667 294.833 558 295.6 562 296C567 296.5 570.5 290.5 571 288.5C571.4 286.9 573.833 279.833 575 276.5C575.667 278.5 576.4 283.5 574 287.5C571.6 291.5 569.333 296.833 568.5 299C567.73 298.94 566.89 298.87 566 298.791C564.667 302.527 558.9 310.7 546.5 313.5C531 317 528 314 525 312.5C522 311 499 313 495 312.5C491.8 312.1 492 307 492.5 304.5C491.5 304.5 489.4 304.1 489 302.5C488.6 300.9 490.167 295.167 491 292.5C492.167 290.833 496.865 287.7 506.323 288.5C506.108 286.592 506.156 284.407 506.5 282L503.5 269C508.167 270.5 518.5 275.8 522.5 285Z" fill="#171717"/>
<path d="M183 281.5C203.441 308.755 292.663 272.185 341.588 247.135C340.352 246.201 339.357 245.461 338.5 245C333.3 242.2 328.667 233.5 327 229.5V213.5C330.667 221.667 344.2 239.4 369 245C400 252 394.5 257 451 250.5C496.2 245.3 512.5 222.333 515 211.5L513.5 231.5C506.5 243.333 479.2 267.1 426 267.5C381.935 267.831 360.702 259.381 349.5 252.623V254L295 281.5C197.5 322.5 173.667 299.5 183 281.5Z" fill="#171717"/>
<path d="M376 180.5C354 188.1 342.5 204.5 348 215C365.2 196.6 382.5 189.667 389 188.5C422 176.5 457.5 185.5 477 196.5C481.21 198.875 490.5 207.333 494.5 211.5C498 200 486 181.5 448 175.5C428.4 171.5 398 172.9 376 180.5Z" fill="#171717" stroke="#474747"/>
<path d="M349 263.5C241 333 138 334 185.5 297C285.899 291 334 259.833 345.5 245C393.9 265.8 480.5 258.5 514 230.5C514 233.667 512 245 512 245C499 275 394.016 293.226 349 263.5Z" fill="#171717"/>
<path d="M541 254C539.333 251.333 535.7 245.1 534.5 241.5C533 237 532.5 241 517 254C507 262 518.5 271 523 286C517 273.5 507.167 269.667 503 267.5C504.333 273.167 506.9 285.8 506.5 291C506 297.5 523 301 526 302C529 303 547 303.853 551.5 297.426M532.5 262.5C537 257.167 547.1 247.1 551.5 249.5C557.5 251.5 557.5 250.5 559 258C559.414 260.072 559.841 262.522 560.242 265M562 277C561.673 274.491 561.003 269.696 560.242 265M560.242 265C570 269 573 272 575 277C576.6 281 575.667 284.667 575 286L568 299C563.888 298.909 557.251 298.467 551.5 297.426M541 293.5C542.626 295.307 546.762 296.57 551.5 297.426" stroke="#474747" stroke-width="2"/>
<path d="M213 123.5C211.833 117.667 211.3 102.1 218.5 86.5C221.5 80 236.5 76 242.5 74L240.5 95.001M261.5 152.5L239.5 105.5L240.5 95.001M261.5 152.5L260 162.5L214.5 176M261.5 152.5C263.333 150.667 267 145.9 267 141.5C267 136 261.5 125 263.5 125.5C265.5 126 277.5 129.5 281.5 132.5C284.7 134.9 288.167 140.167 289.5 142.5L292.5 147.654M233 107.5C225.667 111.833 210.6 122 209 128C207 135.5 207.5 140 204.5 147C202.1 152.6 206.5 157 209 158.5M222 156C214.833 156.333 200.4 157.8 200 161C199.6 164.2 200.833 169.667 201.5 172C201 175.667 203.3 184.1 216.5 188.5C233 194 239 197.5 249.5 197.5C260 197.5 311.5 194 316.5 190C321.5 186 321 183.5 323 181.5C325 179.5 328 168.5 324 163.5C320 158.5 309 152.5 310.5 145C311.7 139 313.333 131.167 314 128M309 176L292.5 147.654M292.5 147.654C302.333 139.269 322.1 121.9 322.5 119.5C323 116.5 325.223 115.848 321 114C318.051 112.71 313.83 111.456 309 110.312M282.145 105.768C290.668 106.715 300.728 108.352 309 110.312M240.5 95.001C244 95.834 251.2 99 252 105C253 112.5 250 109.5 256 120.5C262 131.5 292 126.5 294 125.5C295.6 124.7 287.333 112.833 283 107C273 92.5 270.5 91.5 240.5 95.001ZM260.5 93C277.5 89 271.5 87.5 285.5 91.5C299.5 95.5 303 97.5 304.5 99.5C305.7 101.1 308 107.374 309 110.312" stroke="#474747" stroke-width="2"/>
<path d="M350 253C395 276 489 273 513.5 231L515 209.5" stroke="#474747" stroke-width="2"/>
<path d="M327 208.5V230.437M327 230.437C329.257 229.93 331.427 229.451 333.5 229L350 242V253L306 276.5C300.5 279.5 269.5 297 220 305C206.5 306.5 172.5 302 184 280.5C192.786 264.075 279.175 241.175 327 230.437ZM348 217C371.5 176 466 170.5 494 213" stroke="#474747" stroke-width="2"/>
<path d="M494.993 207.942C495.129 217.565 487.268 226.671 473.8 233.51C460.397 240.317 441.739 244.702 421.011 244.996C400.284 245.291 381.509 241.437 367.918 235.014C354.261 228.56 346.144 219.681 346.008 210.058C345.871 200.435 353.732 191.329 367.2 184.49C380.603 177.683 399.261 173.298 419.989 173.004C440.717 172.709 459.491 176.563 473.082 182.986C486.74 189.44 494.856 198.319 494.993 207.942Z" stroke="#474747" stroke-width="2"/>
<path d="M388.5 178C382 179 378 181 371.5 183.5C411.569 200.693 433.266 211.686 470.5 234C471 234.333 473 232.864 475.5 231.5C479.9 229.1 483.5 226.5 483.5 226.5C483.5 226.5 422.642 192.277 388.5 178Z" fill="#D9D9D9" fill-opacity="0.32" stroke="#474747"/>
<path d="M407.987 173L396 174.5C433.192 190.881 453.164 201.494 487.5 222.5C487.944 222.799 490 220 491.5 217.5C493 215 493 214 493 214C461.862 195.069 443.383 185.903 407.987 173Z" fill="#D9D9D9" fill-opacity="0.32" stroke="#474747"/>
<path d="M515 207.5C515 219.747 504.829 231.116 487.736 239.482C470.708 247.817 447.115 253 421 253C394.885 253 371.292 247.817 354.264 239.482C337.171 231.116 327 219.747 327 207.5C327 195.253 337.171 183.884 354.264 175.518C371.292 167.183 394.885 162 421 162C447.115 162 470.708 167.183 487.736 175.518C504.829 183.884 515 195.253 515 207.5Z" stroke="#474747" stroke-width="2"/>
<g filter="url(#filter0_d_36_2)">
<path d="M545 146C543.4 144.4 545.333 143.667 546.5 143.5C546.5 143.167 546.7 142.3 547.5 141.5C548.5 140.5 549.5 142.5 549.5 143C549.5 143.5 550.5 145 549.5 146C548.5 147 547 148 545 146Z" stroke="#474747" stroke-width="2"/>
<g filter="url(#filter1_d_36_2)">
<path d="M478 131C478 131.771 477.735 132.7 477.251 133.414C476.772 134.12 476.171 134.5 475.5 134.5C474.617 134.5 473.701 134.182 473.02 133.673C472.331 133.16 472 132.551 472 132C472 131.143 472.179 130.194 472.553 129.498C472.91 128.831 473.372 128.5 474 128.5C474.895 128.5 475.958 128.826 476.783 129.363C477.64 129.921 478 130.532 478 131Z" stroke="#474747" stroke-width="2" shape-rendering="crispEdges"/>
</g>
<g filter="url(#filter2_d_36_2)">
<path d="M536.5 154C536.5 154.771 536.235 155.7 535.751 156.414C535.272 157.12 534.671 157.5 534 157.5C533.117 157.5 532.201 157.182 531.52 156.673C530.831 156.16 530.5 155.551 530.5 155C530.5 154.143 530.679 153.194 531.053 152.498C531.41 151.831 531.872 151.5 532.5 151.5C533.395 151.5 534.458 151.826 535.283 152.363C536.14 152.921 536.5 153.532 536.5 154Z" stroke="#474747" stroke-width="2" shape-rendering="crispEdges"/>
</g>
<g filter="url(#filter3_d_36_2)">
<path d="M558.302 153.5C559.062 153.326 559.632 153.239 559.995 153.255C559.964 154.122 559.778 155.35 559.393 156.373C559.181 156.936 558.932 157.372 558.671 157.651C558.424 157.915 558.209 158 558 158C557.322 158 556.605 158.146 555.972 158.3C555.665 158.375 555.396 158.447 555.143 158.514C554.817 158.6 554.519 158.68 554.207 158.748C553.873 158.822 553.645 158.851 553.498 158.858C553.486 158.339 553.41 157.755 553.341 157.224L553.337 157.196C553.257 156.576 553.183 156.005 553.171 155.502C553.159 154.973 553.224 154.688 553.291 154.564C553.304 154.54 553.313 154.531 553.315 154.528C553.316 154.527 553.316 154.527 553.317 154.527C553.317 154.527 553.317 154.527 553.317 154.527L553.317 154.527C553.318 154.526 553.328 154.52 553.355 154.514C553.382 154.507 553.429 154.5 553.5 154.5C554.189 154.5 555.044 154.317 555.842 154.121C556.208 154.031 556.56 153.94 556.904 153.85C557.377 153.727 557.836 153.607 558.302 153.5Z" stroke="#474747" stroke-width="2" shape-rendering="crispEdges"/>
</g>
<g filter="url(#filter4_d_36_2)">
<path d="M503.184 134.017L503.093 134H503C500.771 134 499.558 133.518 498.905 132.936C498.277 132.376 498 131.572 498 130.5C498 129.684 498.573 128.572 499.841 127.617C501.078 126.685 502.866 126 505 126C507.149 126 509.349 126.695 510.999 127.677C511.822 128.167 512.473 128.707 512.906 129.23C513.257 129.654 513.426 130.016 513.48 130.298C513.001 131.208 512.239 132.368 510.856 133.208C509.362 134.115 507 134.733 503.184 134.017Z" stroke="#474747" stroke-width="2" shape-rendering="crispEdges"/>
</g>
<g filter="url(#filter5_d_36_2)">
<path d="M528 144.566C528 145.442 527.569 146.314 526.694 147.174C525.816 148.037 524.558 148.815 523.1 149.471C520.176 150.787 516.69 151.5 514.5 151.5C512.482 151.5 511.286 150.675 510.557 149.64C509.794 148.554 509.5 147.164 509.5 146.066C509.5 145.735 509.676 145.186 510.152 144.485C510.611 143.807 511.287 143.081 512.117 142.413C513.793 141.064 515.953 140.066 518 140.066C520.164 140.066 522.764 140.77 524.819 141.781C525.844 142.285 526.684 142.842 527.252 143.383C527.849 143.951 528 144.358 528 144.566Z" stroke="#474747" stroke-width="2" shape-rendering="crispEdges"/>
</g>
<g filter="url(#filter6_d_36_2)">
<path d="M500.5 157.488C500.5 158.119 499.989 158.745 498.882 159.274C497.824 159.779 496.596 160 496 160C494.937 160 494.163 159.98 493.637 159.76C493.414 159.666 493.281 159.552 493.192 159.41C493.098 159.259 493 158.99 493 158.5C493 158.227 492.928 157.955 492.876 157.774C492.84 157.652 492.793 157.503 492.749 157.365C492.726 157.294 492.704 157.226 492.685 157.166C492.554 156.743 492.478 156.414 492.489 156.156C492.497 155.962 492.546 155.868 492.687 155.772C492.899 155.63 493.405 155.443 494.5 155.443C496.857 155.443 498.431 155.591 499.399 155.966C499.858 156.144 500.11 156.348 500.255 156.548C500.395 156.743 500.5 157.026 500.5 157.488Z" stroke="#474747" stroke-width="2" shape-rendering="crispEdges"/>
</g>
<g filter="url(#filter7_d_36_2)">
<path d="M497.5 140C497.5 140.282 497.484 140.462 497.469 140.571C497.422 140.573 497.366 140.574 497.303 140.576C496.836 140.587 495.953 140.608 494.932 140.959C494.517 140.872 494.115 140.818 493.768 140.771C493.734 140.766 493.699 140.762 493.666 140.757C493.182 140.691 492.839 140.637 492.568 140.546C492.32 140.463 492.219 140.376 492.162 140.294C492.1 140.205 492 139.994 492 139.5C492 138.801 491.885 138.204 491.802 137.773C491.798 137.753 491.794 137.734 491.791 137.716C491.746 137.485 491.719 137.332 491.707 137.208C491.707 137.203 491.706 137.199 491.706 137.194C491.733 137.185 491.767 137.175 491.809 137.163C492.174 137.066 492.834 137 494 137C496.353 137 497.006 137.407 497.222 137.683C497.331 137.823 497.418 138.037 497.463 138.438C497.503 138.791 497.502 139.188 497.501 139.698C497.5 139.795 497.5 139.895 497.5 140ZM491.609 137.236C491.608 137.236 491.611 137.234 491.616 137.231C491.612 137.234 491.609 137.236 491.609 137.236Z" stroke="#474747" stroke-width="2" shape-rendering="crispEdges"/>
</g>
</g>
<mask id="path-24-outside-2_36_2" maskUnits="userSpaceOnUse" x="302" y="338" width="124" height="43" fill="black">
<rect fill="white" x="302" y="338" width="124" height="43"/>
<path d="M333.311 355.364C333.311 358.804 332.65 361.721 331.326 364.113C330.003 366.506 328.211 368.323 325.951 369.565C323.701 370.807 321.177 371.428 318.377 371.428C315.568 371.428 313.038 370.801 310.788 369.549C308.538 368.297 306.752 366.48 305.428 364.098C304.115 361.706 303.459 358.794 303.459 355.364C303.459 351.923 304.115 349.006 305.428 346.614C306.752 344.222 308.538 342.405 310.788 341.163C313.038 339.921 315.568 339.3 318.377 339.3C321.177 339.3 323.701 339.921 325.951 341.163C328.211 342.405 330.003 344.222 331.326 346.614C332.65 349.006 333.311 351.923 333.311 355.364ZM325.585 355.364C325.585 353.328 325.295 351.607 324.714 350.202C324.144 348.798 323.32 347.734 322.241 347.011C321.172 346.288 319.884 345.927 318.377 345.927C316.881 345.927 315.593 346.288 314.514 347.011C313.435 347.734 312.605 348.798 312.025 350.202C311.455 351.607 311.17 353.328 311.17 355.364C311.17 357.4 311.455 359.12 312.025 360.525C312.605 361.93 313.435 362.993 314.514 363.716C315.593 364.439 316.881 364.8 318.377 364.8C319.884 364.8 321.172 364.439 322.241 363.716C323.32 362.993 324.144 361.93 324.714 360.525C325.295 359.12 325.585 357.4 325.585 355.364ZM348.673 371.443C346.209 371.443 344.092 370.939 342.32 369.931C340.559 368.913 339.2 367.498 338.243 365.686C337.297 363.864 336.823 361.752 336.823 359.349C336.823 356.936 337.297 354.824 338.243 353.012C339.2 351.19 340.559 349.775 342.32 348.767C344.092 347.749 346.209 347.24 348.673 347.24C351.136 347.24 353.249 347.749 355.01 348.767C356.781 349.775 358.14 351.19 359.087 353.012C360.044 354.824 360.522 356.936 360.522 359.349C360.522 361.752 360.044 363.864 359.087 365.686C358.14 367.498 356.781 368.913 355.01 369.931C353.249 370.939 351.136 371.443 348.673 371.443ZM348.719 365.808C349.614 365.808 350.373 365.533 350.994 364.984C351.615 364.434 352.088 363.67 352.414 362.693C352.75 361.716 352.918 360.586 352.918 359.303C352.918 358 352.75 356.86 352.414 355.883C352.088 354.906 351.615 354.142 350.994 353.592C350.373 353.043 349.614 352.768 348.719 352.768C347.792 352.768 347.008 353.043 346.367 353.592C345.736 354.142 345.252 354.906 344.916 355.883C344.591 356.86 344.428 358 344.428 359.303C344.428 360.586 344.591 361.716 344.916 362.693C345.252 363.67 345.736 364.434 346.367 364.984C347.008 365.533 347.792 365.808 348.719 365.808ZM364.347 379.795V347.545H371.738V351.561H371.967C372.272 350.849 372.705 350.162 373.265 349.5C373.835 348.838 374.558 348.299 375.433 347.881C376.319 347.454 377.378 347.24 378.609 347.24C380.238 347.24 381.76 347.668 383.175 348.523C384.6 349.378 385.751 350.696 386.626 352.478C387.502 354.259 387.939 356.529 387.939 359.288C387.939 361.945 387.517 364.169 386.672 365.961C385.837 367.753 384.707 369.096 383.282 369.992C381.867 370.888 380.294 371.336 378.564 371.336C377.383 371.336 376.36 371.143 375.494 370.756C374.629 370.369 373.901 369.86 373.311 369.229C372.73 368.598 372.283 367.921 371.967 367.198H371.814V379.795H364.347ZM371.662 359.273C371.662 360.535 371.83 361.634 372.165 362.571C372.512 363.508 373.005 364.235 373.647 364.755C374.298 365.264 375.077 365.518 375.983 365.518C376.899 365.518 377.678 365.264 378.319 364.755C378.961 364.235 379.444 363.508 379.77 362.571C380.106 361.634 380.274 360.535 380.274 359.273C380.274 358.01 380.106 356.916 379.77 355.99C379.444 355.063 378.961 354.346 378.319 353.837C377.688 353.328 376.909 353.073 375.983 353.073C375.067 353.073 374.288 353.323 373.647 353.821C373.005 354.32 372.512 355.033 372.165 355.959C371.83 356.886 371.662 357.99 371.662 359.273ZM412.329 354.707L405.473 354.89C405.402 354.402 405.208 353.969 404.893 353.592C404.577 353.205 404.165 352.905 403.656 352.691C403.157 352.467 402.577 352.355 401.915 352.355C401.05 352.355 400.312 352.529 399.701 352.875C399.1 353.221 398.805 353.689 398.815 354.279C398.805 354.738 398.988 355.135 399.365 355.471C399.752 355.806 400.439 356.076 401.426 356.28L405.946 357.135C408.288 357.583 410.028 358.326 411.169 359.364C412.319 360.403 412.899 361.777 412.909 363.487C412.899 365.096 412.421 366.495 411.474 367.686C410.537 368.877 409.255 369.804 407.626 370.466C405.997 371.117 404.134 371.443 402.037 371.443C398.688 371.443 396.046 370.756 394.112 369.381C392.188 367.997 391.089 366.144 390.814 363.823L398.189 363.64C398.352 364.495 398.775 365.147 399.457 365.594C400.139 366.042 401.009 366.266 402.068 366.266C403.025 366.266 403.803 366.088 404.404 365.732C405.005 365.376 405.31 364.902 405.32 364.312C405.31 363.782 405.076 363.36 404.618 363.044C404.16 362.719 403.442 362.464 402.465 362.281L398.372 361.502C396.021 361.075 394.27 360.286 393.12 359.135C391.969 357.975 391.399 356.499 391.409 354.707C391.399 353.139 391.817 351.801 392.661 350.691C393.506 349.571 394.708 348.716 396.265 348.126C397.823 347.535 399.66 347.24 401.778 347.24C404.954 347.24 407.458 347.907 409.29 349.24C411.123 350.564 412.136 352.386 412.329 354.707ZM424.205 366.724L424.068 368.419C423.946 369.824 423.696 371.193 423.32 372.527C422.953 373.871 422.561 375.077 422.144 376.146C421.726 377.215 421.396 378.045 421.151 378.635H416.448C416.611 378.045 416.83 377.215 417.105 376.146C417.39 375.077 417.654 373.871 417.899 372.527C418.143 371.183 418.281 369.819 418.311 368.435L418.342 366.724H424.205Z"/>
</mask>
<path d="M333.311 355.364C333.311 358.804 332.65 361.721 331.326 364.113C330.003 366.506 328.211 368.323 325.951 369.565C323.701 370.807 321.177 371.428 318.377 371.428C315.568 371.428 313.038 370.801 310.788 369.549C308.538 368.297 306.752 366.48 305.428 364.098C304.115 361.706 303.459 358.794 303.459 355.364C303.459 351.923 304.115 349.006 305.428 346.614C306.752 344.222 308.538 342.405 310.788 341.163C313.038 339.921 315.568 339.3 318.377 339.3C321.177 339.3 323.701 339.921 325.951 341.163C328.211 342.405 330.003 344.222 331.326 346.614C332.65 349.006 333.311 351.923 333.311 355.364ZM325.585 355.364C325.585 353.328 325.295 351.607 324.714 350.202C324.144 348.798 323.32 347.734 322.241 347.011C321.172 346.288 319.884 345.927 318.377 345.927C316.881 345.927 315.593 346.288 314.514 347.011C313.435 347.734 312.605 348.798 312.025 350.202C311.455 351.607 311.17 353.328 311.17 355.364C311.17 357.4 311.455 359.12 312.025 360.525C312.605 361.93 313.435 362.993 314.514 363.716C315.593 364.439 316.881 364.8 318.377 364.8C319.884 364.8 321.172 364.439 322.241 363.716C323.32 362.993 324.144 361.93 324.714 360.525C325.295 359.12 325.585 357.4 325.585 355.364ZM348.673 371.443C346.209 371.443 344.092 370.939 342.32 369.931C340.559 368.913 339.2 367.498 338.243 365.686C337.297 363.864 336.823 361.752 336.823 359.349C336.823 356.936 337.297 354.824 338.243 353.012C339.2 351.19 340.559 349.775 342.32 348.767C344.092 347.749 346.209 347.24 348.673 347.24C351.136 347.24 353.249 347.749 355.01 348.767C356.781 349.775 358.14 351.19 359.087 353.012C360.044 354.824 360.522 356.936 360.522 359.349C360.522 361.752 360.044 363.864 359.087 365.686C358.14 367.498 356.781 368.913 355.01 369.931C353.249 370.939 351.136 371.443 348.673 371.443ZM348.719 365.808C349.614 365.808 350.373 365.533 350.994 364.984C351.615 364.434 352.088 363.67 352.414 362.693C352.75 361.716 352.918 360.586 352.918 359.303C352.918 358 352.75 356.86 352.414 355.883C352.088 354.906 351.615 354.142 350.994 353.592C350.373 353.043 349.614 352.768 348.719 352.768C347.792 352.768 347.008 353.043 346.367 353.592C345.736 354.142 345.252 354.906 344.916 355.883C344.591 356.86 344.428 358 344.428 359.303C344.428 360.586 344.591 361.716 344.916 362.693C345.252 363.67 345.736 364.434 346.367 364.984C347.008 365.533 347.792 365.808 348.719 365.808ZM364.347 379.795V347.545H371.738V351.561H371.967C372.272 350.849 372.705 350.162 373.265 349.5C373.835 348.838 374.558 348.299 375.433 347.881C376.319 347.454 377.378 347.24 378.609 347.24C380.238 347.24 381.76 347.668 383.175 348.523C384.6 349.378 385.751 350.696 386.626 352.478C387.502 354.259 387.939 356.529 387.939 359.288C387.939 361.945 387.517 364.169 386.672 365.961C385.837 367.753 384.707 369.096 383.282 369.992C381.867 370.888 380.294 371.336 378.564 371.336C377.383 371.336 376.36 371.143 375.494 370.756C374.629 370.369 373.901 369.86 373.311 369.229C372.73 368.598 372.283 367.921 371.967 367.198H371.814V379.795H364.347ZM371.662 359.273C371.662 360.535 371.83 361.634 372.165 362.571C372.512 363.508 373.005 364.235 373.647 364.755C374.298 365.264 375.077 365.518 375.983 365.518C376.899 365.518 377.678 365.264 378.319 364.755C378.961 364.235 379.444 363.508 379.77 362.571C380.106 361.634 380.274 360.535 380.274 359.273C380.274 358.01 380.106 356.916 379.77 355.99C379.444 355.063 378.961 354.346 378.319 353.837C377.688 353.328 376.909 353.073 375.983 353.073C375.067 353.073 374.288 353.323 373.647 353.821C373.005 354.32 372.512 355.033 372.165 355.959C371.83 356.886 371.662 357.99 371.662 359.273ZM412.329 354.707L405.473 354.89C405.402 354.402 405.208 353.969 404.893 353.592C404.577 353.205 404.165 352.905 403.656 352.691C403.157 352.467 402.577 352.355 401.915 352.355C401.05 352.355 400.312 352.529 399.701 352.875C399.1 353.221 398.805 353.689 398.815 354.279C398.805 354.738 398.988 355.135 399.365 355.471C399.752 355.806 400.439 356.076 401.426 356.28L405.946 357.135C408.288 357.583 410.028 358.326 411.169 359.364C412.319 360.403 412.899 361.777 412.909 363.487C412.899 365.096 412.421 366.495 411.474 367.686C410.537 368.877 409.255 369.804 407.626 370.466C405.997 371.117 404.134 371.443 402.037 371.443C398.688 371.443 396.046 370.756 394.112 369.381C392.188 367.997 391.089 366.144 390.814 363.823L398.189 363.64C398.352 364.495 398.775 365.147 399.457 365.594C400.139 366.042 401.009 366.266 402.068 366.266C403.025 366.266 403.803 366.088 404.404 365.732C405.005 365.376 405.31 364.902 405.32 364.312C405.31 363.782 405.076 363.36 404.618 363.044C404.16 362.719 403.442 362.464 402.465 362.281L398.372 361.502C396.021 361.075 394.27 360.286 393.12 359.135C391.969 357.975 391.399 356.499 391.409 354.707C391.399 353.139 391.817 351.801 392.661 350.691C393.506 349.571 394.708 348.716 396.265 348.126C397.823 347.535 399.66 347.24 401.778 347.24C404.954 347.24 407.458 347.907 409.29 349.24C411.123 350.564 412.136 352.386 412.329 354.707ZM424.205 366.724L424.068 368.419C423.946 369.824 423.696 371.193 423.32 372.527C422.953 373.871 422.561 375.077 422.144 376.146C421.726 377.215 421.396 378.045 421.151 378.635H416.448C416.611 378.045 416.83 377.215 417.105 376.146C417.39 375.077 417.654 373.871 417.899 372.527C418.143 371.183 418.281 369.819 418.311 368.435L418.342 366.724H424.205Z" fill="#B2B2B4"/>
<path d="M331.326 364.113L330.451 363.629L331.326 364.113ZM325.951 369.565L325.47 368.688L325.468 368.689L325.951 369.565ZM310.788 369.549L311.274 368.676L310.788 369.549ZM305.428 364.098L304.552 364.579L304.554 364.584L305.428 364.098ZM305.428 346.614L304.553 346.13L304.552 346.133L305.428 346.614ZM310.788 341.163L311.271 342.038L310.788 341.163ZM325.951 341.163L325.468 342.038L325.47 342.039L325.951 341.163ZM331.326 346.614L330.451 347.098V347.098L331.326 346.614ZM324.714 350.202L323.788 350.578L323.79 350.584L324.714 350.202ZM322.241 347.011L321.68 347.839L321.684 347.842L322.241 347.011ZM314.514 347.011L315.071 347.842V347.842L314.514 347.011ZM312.025 350.202L311.101 349.821L311.098 349.826L312.025 350.202ZM312.025 360.525L311.098 360.901L311.101 360.907L312.025 360.525ZM314.514 363.716L315.071 362.885L314.514 363.716ZM322.241 363.716L321.684 362.885L321.68 362.888L322.241 363.716ZM324.714 360.525L323.79 360.143L323.788 360.149L324.714 360.525ZM332.311 355.364C332.311 358.678 331.674 361.419 330.451 363.629L332.201 364.597C333.625 362.023 334.311 358.931 334.311 355.364H332.311ZM330.451 363.629C329.213 365.867 327.554 367.543 325.47 368.688L326.433 370.441C328.868 369.103 330.792 367.145 332.201 364.597L330.451 363.629ZM325.468 368.689C323.379 369.842 321.023 370.428 318.377 370.428V372.428C321.33 372.428 324.024 371.771 326.434 370.44L325.468 368.689ZM318.377 370.428C315.722 370.428 313.362 369.838 311.274 368.676L310.302 370.423C312.714 371.765 315.413 372.428 318.377 372.428V370.428ZM311.274 368.676C309.197 367.52 307.541 365.841 306.303 363.612L304.554 364.584C305.963 367.119 307.879 369.075 310.302 370.423L311.274 368.676ZM306.305 363.617C305.091 361.405 304.459 358.669 304.459 355.364H302.459C302.459 358.92 303.139 362.006 304.552 364.579L306.305 363.617ZM304.459 355.364C304.459 352.048 305.091 349.306 306.305 347.095L304.552 346.133C303.139 348.706 302.459 351.798 302.459 355.364H304.459ZM306.303 347.098C307.542 344.86 309.197 343.183 311.271 342.038L310.305 340.287C307.88 341.626 305.962 343.584 304.553 346.13L306.303 347.098ZM311.271 342.038C313.36 340.885 315.721 340.3 318.377 340.3V338.3C315.415 338.3 312.716 338.956 310.305 340.287L311.271 342.038ZM318.377 340.3C321.023 340.3 323.379 340.885 325.468 342.038L326.434 340.287C324.024 338.956 321.33 338.3 318.377 338.3V340.3ZM325.47 342.039C327.554 343.184 329.213 344.861 330.451 347.098L332.201 346.13C330.792 343.583 328.868 341.625 326.433 340.286L325.47 342.039ZM330.451 347.098C331.674 349.309 332.311 352.049 332.311 355.364H334.311C334.311 351.796 333.625 348.704 332.201 346.13L330.451 347.098ZM326.585 355.364C326.585 353.239 326.283 351.38 325.639 349.821L323.79 350.584C324.306 351.834 324.585 353.417 324.585 355.364H326.585ZM325.641 349.826C325.009 348.268 324.069 347.032 322.797 346.18L321.684 347.842C322.571 348.436 323.28 349.327 323.788 350.578L325.641 349.826ZM322.801 346.183C321.54 345.33 320.049 344.927 318.377 344.927V346.927C319.719 346.927 320.803 347.246 321.68 347.839L322.801 346.183ZM318.377 344.927C316.714 344.927 315.225 345.331 313.958 346.18L315.071 347.842C315.961 347.245 317.048 346.927 318.377 346.927V344.927ZM313.958 346.18C312.688 347.031 311.743 348.265 311.101 349.821L312.949 350.584C313.467 349.33 314.182 348.437 315.071 347.842L313.958 346.18ZM311.098 349.826C310.466 351.384 310.17 353.24 310.17 355.364H312.17C312.17 353.415 312.444 351.831 312.952 350.578L311.098 349.826ZM310.17 355.364C310.17 357.487 310.466 359.343 311.098 360.901L312.952 360.149C312.444 358.897 312.17 357.312 312.17 355.364H310.17ZM311.101 360.907C311.743 362.462 312.688 363.697 313.958 364.547L315.071 362.885C314.182 362.29 313.467 361.397 312.949 360.143L311.101 360.907ZM313.958 364.547C315.225 365.396 316.714 365.8 318.377 365.8V363.8C317.048 363.8 315.961 363.482 315.071 362.885L313.958 364.547ZM318.377 365.8C320.049 365.8 321.54 365.397 322.801 364.545L321.68 362.888C320.803 363.481 319.719 363.8 318.377 363.8V365.8ZM322.797 364.547C324.069 363.695 325.009 362.459 325.641 360.901L323.788 360.149C323.28 361.4 322.571 362.292 321.684 362.885L322.797 364.547ZM325.639 360.907C326.283 359.347 326.585 357.489 326.585 355.364H324.585C324.585 357.311 324.306 358.893 323.79 360.143L325.639 360.907ZM342.32 369.931L341.82 370.797L341.826 370.8L342.32 369.931ZM338.243 365.686L337.356 366.147L337.359 366.153L338.243 365.686ZM338.243 353.012L337.358 352.547L337.357 352.549L338.243 353.012ZM342.32 348.767L342.817 349.635L342.819 349.634L342.32 348.767ZM355.01 348.767L354.509 349.633L354.515 349.636L355.01 348.767ZM359.087 353.012L358.199 353.473L358.203 353.479L359.087 353.012ZM359.087 365.686L358.201 365.221L358.201 365.223L359.087 365.686ZM355.01 369.931L355.506 370.799L355.508 370.798L355.01 369.931ZM350.994 364.984L350.331 364.235L350.994 364.984ZM352.414 362.693L351.468 362.368L351.465 362.377L352.414 362.693ZM352.414 355.883L351.465 356.199L351.468 356.208L352.414 355.883ZM350.994 353.592L351.657 352.844L350.994 353.592ZM346.367 353.592L345.716 352.833L345.71 352.838L346.367 353.592ZM344.916 355.883L343.971 355.558L343.968 355.567L344.916 355.883ZM344.916 362.693L343.968 363.009L343.971 363.018L344.916 362.693ZM346.367 364.984L345.71 365.738L345.716 365.743L346.367 364.984ZM348.673 370.443C346.347 370.443 344.407 369.968 342.815 369.062L341.826 370.8C343.777 371.91 346.072 372.443 348.673 372.443V370.443ZM342.821 369.065C341.224 368.142 339.997 366.866 339.128 365.219L337.359 366.153C338.403 368.13 339.895 369.684 341.82 370.797L342.821 369.065ZM339.131 365.225C338.27 363.568 337.823 361.618 337.823 359.349H335.823C335.823 361.885 336.324 364.16 337.356 366.147L339.131 365.225ZM337.823 359.349C337.823 357.069 338.27 355.121 339.13 353.475L337.357 352.549C336.323 354.528 335.823 356.804 335.823 359.349H337.823ZM339.129 353.477C339.998 351.821 341.224 350.547 342.817 349.635L341.824 347.899C339.895 349.003 338.402 350.559 337.358 352.547L339.129 353.477ZM342.819 349.634C344.41 348.72 346.348 348.24 348.673 348.24V346.24C346.07 346.24 343.774 346.779 341.822 347.9L342.819 349.634ZM348.673 348.24C350.998 348.24 352.929 348.72 354.509 349.633L355.51 347.901C353.568 346.779 351.275 346.24 348.673 346.24V348.24ZM354.515 349.636C356.118 350.548 357.341 351.821 358.199 353.473L359.974 352.551C358.939 350.559 357.444 349.002 355.504 347.898L354.515 349.636ZM358.203 353.479C359.071 355.124 359.522 357.07 359.522 359.349H361.522C361.522 356.803 361.016 354.525 359.971 352.545L358.203 353.479ZM359.522 359.349C359.522 361.617 359.071 363.565 358.201 365.221L359.972 366.151C361.016 364.163 361.522 361.886 361.522 359.349H359.522ZM358.201 365.223C357.342 366.866 356.117 368.141 354.511 369.064L355.508 370.798C357.445 369.685 358.938 368.13 359.973 366.149L358.201 365.223ZM354.513 369.063C352.932 369.968 350.999 370.443 348.673 370.443V372.443C351.273 372.443 353.565 371.91 355.506 370.799L354.513 369.063ZM348.719 366.808C349.837 366.808 350.837 366.458 351.657 365.732L350.331 364.235C349.908 364.609 349.391 364.808 348.719 364.808V366.808ZM351.657 365.732C352.438 365.041 352.995 364.113 353.363 363.009L351.465 362.377C351.182 363.227 350.792 363.827 350.331 364.235L351.657 365.732ZM353.36 363.018C353.739 361.915 353.918 360.671 353.918 359.303H351.918C351.918 360.501 351.761 361.517 351.468 362.368L353.36 363.018ZM353.918 359.303C353.918 357.917 353.739 356.663 353.36 355.558L351.468 356.208C351.76 357.057 351.918 358.083 351.918 359.303H353.918ZM353.363 355.567C352.995 354.463 352.438 353.535 351.657 352.844L350.331 354.341C350.792 354.749 351.182 355.349 351.465 356.199L353.363 355.567ZM351.657 352.844C350.837 352.118 349.837 351.768 348.719 351.768V353.768C349.391 353.768 349.908 353.967 350.331 354.341L351.657 352.844ZM348.719 351.768C347.578 351.768 346.557 352.113 345.716 352.833L347.018 354.352C347.46 353.973 348.006 353.768 348.719 353.768V351.768ZM345.71 352.838C344.919 353.527 344.35 354.453 343.971 355.558L345.862 356.208C346.154 355.358 346.553 354.757 347.024 354.346L345.71 352.838ZM343.968 355.567C343.6 356.669 343.428 357.92 343.428 359.303H345.428C345.428 358.081 345.581 357.051 345.865 356.199L343.968 355.567ZM343.428 359.303C343.428 360.668 343.601 361.909 343.968 363.009L345.865 362.377C345.58 361.523 345.428 360.504 345.428 359.303H343.428ZM343.971 363.018C344.35 364.123 344.919 365.049 345.71 365.738L347.024 364.23C346.553 363.819 346.154 363.218 345.862 362.368L343.971 363.018ZM345.716 365.743C346.557 366.463 347.578 366.808 348.719 366.808V364.808C348.006 364.808 347.46 364.603 347.018 364.224L345.716 365.743ZM364.347 379.795H363.347V380.795H364.347V379.795ZM364.347 347.545V346.545H363.347V347.545H364.347ZM371.738 347.545H372.738V346.545H371.738V347.545ZM371.738 351.561H370.738V352.561H371.738V351.561ZM371.967 351.561V352.561H372.626L372.886 351.955L371.967 351.561ZM373.265 349.5L372.507 348.847L372.502 348.854L373.265 349.5ZM375.433 347.881L375.864 348.784L375.868 348.782L375.433 347.881ZM383.175 348.523L382.658 349.379L382.661 349.38L383.175 348.523ZM386.626 352.478L387.524 352.037L386.626 352.478ZM386.672 365.961L385.767 365.534L385.765 365.539L386.672 365.961ZM383.282 369.992L382.75 369.146L382.747 369.147L383.282 369.992ZM375.494 370.756L375.086 371.669L375.494 370.756ZM373.311 369.229L372.575 369.906L372.58 369.912L373.311 369.229ZM371.967 367.198L372.883 366.798L372.622 366.198H371.967V367.198ZM371.814 367.198V366.198H370.814V367.198H371.814ZM371.814 379.795V380.795H372.814V379.795H371.814ZM372.165 362.571L371.224 362.909L371.227 362.918L372.165 362.571ZM373.647 364.755L373.017 365.532L373.024 365.537L373.031 365.543L373.647 364.755ZM378.319 364.755L378.941 365.538L378.948 365.532L378.319 364.755ZM379.77 362.571L378.829 362.233L378.825 362.243L379.77 362.571ZM379.77 355.99L378.826 356.321L378.83 356.331L379.77 355.99ZM378.319 353.837L377.691 354.615L377.698 354.62L378.319 353.837ZM373.647 353.821L373.033 353.032L373.647 353.821ZM372.165 355.959L371.229 355.609L371.225 355.618L372.165 355.959ZM365.347 379.795V347.545H363.347V379.795H365.347ZM364.347 348.545H371.738V346.545H364.347V348.545ZM370.738 347.545V351.561H372.738V347.545H370.738ZM371.738 352.561H371.967V350.561H371.738V352.561ZM372.886 351.955C373.148 351.344 373.525 350.741 374.028 350.146L372.502 348.854C371.885 349.583 371.397 350.354 371.048 351.168L372.886 351.955ZM374.023 350.153C374.492 349.607 375.099 349.148 375.864 348.784L375.003 346.979C374.016 347.449 373.177 348.069 372.507 348.847L374.023 350.153ZM375.868 348.782C376.588 348.434 377.491 348.24 378.609 348.24V346.24C377.264 346.24 376.05 346.473 374.998 346.981L375.868 348.782ZM378.609 348.24C380.053 348.24 381.396 348.616 382.658 349.379L383.692 347.667C382.124 346.719 380.423 346.24 378.609 346.24V348.24ZM382.661 349.38C383.891 350.118 384.921 351.276 385.729 352.919L387.524 352.037C386.58 350.116 385.31 348.637 383.69 347.665L382.661 349.38ZM385.729 352.919C386.516 354.52 386.939 356.626 386.939 359.288H388.939C388.939 356.432 388.487 353.998 387.524 352.037L385.729 352.919ZM386.939 359.288C386.939 361.845 386.532 363.914 385.767 365.534L387.576 366.387C388.502 364.425 388.939 362.045 388.939 359.288H386.939ZM385.765 365.539C384.998 367.187 383.985 368.369 382.75 369.146L383.814 370.839C385.429 369.824 386.677 368.318 387.578 366.383L385.765 365.539ZM382.747 369.147C381.498 369.938 380.111 370.336 378.564 370.336V372.336C380.477 372.336 382.236 371.838 383.817 370.837L382.747 369.147ZM378.564 370.336C377.49 370.336 376.612 370.16 375.902 369.843L375.086 371.669C376.107 372.125 377.276 372.336 378.564 372.336V370.336ZM375.902 369.843C375.147 369.505 374.532 369.07 374.041 368.546L372.58 369.912C373.27 370.649 374.111 371.233 375.086 371.669L375.902 369.843ZM374.047 368.552C373.535 367.995 373.151 367.41 372.883 366.798L371.051 367.598C371.414 368.431 371.926 369.2 372.575 369.905L374.047 368.552ZM371.967 366.198H371.814V368.198H371.967V366.198ZM370.814 367.198V379.795H372.814V367.198H370.814ZM371.814 378.795H364.347V380.795H371.814V378.795ZM370.662 359.273C370.662 360.621 370.841 361.839 371.224 362.909L373.107 362.233C372.819 361.43 372.662 360.449 372.662 359.273H370.662ZM371.227 362.918C371.623 363.987 372.21 364.878 373.017 365.532L374.276 363.977C373.801 363.593 373.4 363.028 373.103 362.224L371.227 362.918ZM373.031 365.543C373.875 366.202 374.877 366.518 375.983 366.518V364.518C375.277 364.518 374.721 364.325 374.262 363.967L373.031 365.543ZM375.983 366.518C377.096 366.518 378.102 366.204 378.941 365.538L377.698 363.971C377.254 364.323 376.702 364.518 375.983 364.518V366.518ZM378.948 365.532C379.761 364.874 380.34 363.976 380.714 362.9L378.825 362.243C378.548 363.039 378.16 363.597 377.69 363.977L378.948 365.532ZM380.711 362.909C381.095 361.839 381.274 360.621 381.274 359.273H379.274C379.274 360.449 379.117 361.43 378.829 362.233L380.711 362.909ZM381.274 359.273C381.274 357.925 381.095 356.71 380.71 355.649L378.83 356.331C379.117 357.122 379.274 358.096 379.274 359.273H381.274ZM380.713 355.658C380.338 354.59 379.757 353.701 378.941 353.053L377.698 354.62C378.164 354.99 378.551 355.537 378.827 356.321L380.713 355.658ZM378.947 353.058C378.113 352.386 377.103 352.073 375.983 352.073V354.073C376.715 354.073 377.263 354.27 377.691 354.615L378.947 353.058ZM375.983 352.073C374.874 352.073 373.872 352.379 373.033 353.032L374.261 354.611C374.704 354.266 375.259 354.073 375.983 354.073V352.073ZM373.033 353.032C372.216 353.667 371.626 354.547 371.229 355.609L373.102 356.309C373.398 355.519 373.794 354.973 374.261 354.611L373.033 353.032ZM371.225 355.618C370.84 356.681 370.662 357.907 370.662 359.273H372.662C372.662 358.073 372.819 357.09 373.106 356.3L371.225 355.618ZM412.329 354.707L412.356 355.707L413.414 355.678L413.326 354.624L412.329 354.707ZM405.473 354.89L404.483 355.035L404.612 355.914L405.5 355.89L405.473 354.89ZM404.893 353.592L404.118 354.225L404.126 354.235L404.893 353.592ZM403.656 352.691L403.246 353.604L403.257 353.609L403.269 353.613L403.656 352.691ZM399.701 352.875L399.208 352.005L399.202 352.008L399.701 352.875ZM398.815 354.279L399.815 354.302L399.815 354.282L399.815 354.262L398.815 354.279ZM399.365 355.471L398.699 356.217L398.709 356.226L399.365 355.471ZM401.426 356.28L401.224 357.259L401.232 357.261L401.241 357.262L401.426 356.28ZM405.946 357.135L406.134 356.153L406.132 356.152L405.946 357.135ZM411.169 359.364L410.495 360.104L410.499 360.107L411.169 359.364ZM412.909 363.487L413.909 363.494L413.909 363.481L412.909 363.487ZM411.474 367.686L410.691 367.064L410.688 367.068L411.474 367.686ZM407.626 370.466L407.997 371.394L408.002 371.392L407.626 370.466ZM394.112 369.381L393.528 370.193L393.533 370.197L394.112 369.381ZM390.814 363.823L390.789 362.823L389.692 362.851L389.821 363.941L390.814 363.823ZM398.189 363.64L399.172 363.453L399.013 362.619L398.164 362.64L398.189 363.64ZM399.457 365.594L400.006 364.759L399.457 365.594ZM404.404 365.732L403.894 364.872L404.404 365.732ZM405.32 364.312L406.32 364.329L406.32 364.311L406.32 364.293L405.32 364.312ZM404.618 363.044L404.038 363.859L404.044 363.864L404.051 363.868L404.618 363.044ZM402.465 362.281L402.278 363.263L402.28 363.264L402.465 362.281ZM398.372 361.502L398.559 360.52L398.551 360.518L398.372 361.502ZM393.12 359.135L392.409 359.839L392.412 359.842L393.12 359.135ZM391.409 354.707L392.409 354.713L392.409 354.701L391.409 354.707ZM392.661 350.691L393.457 351.297L393.46 351.293L392.661 350.691ZM396.265 348.126L395.911 347.191L396.265 348.126ZM409.29 349.24L408.702 350.049L408.705 350.051L409.29 349.24ZM412.302 353.707L405.446 353.891L405.5 355.89L412.356 355.707L412.302 353.707ZM406.462 354.746C406.365 354.075 406.094 353.47 405.659 352.95L404.126 354.235C404.322 354.468 404.439 354.728 404.483 355.035L406.462 354.746ZM405.668 352.96C405.238 352.433 404.687 352.04 404.043 351.769L403.269 353.613C403.643 353.771 403.916 353.978 404.118 354.224L405.668 352.96ZM404.065 351.779C403.414 351.487 402.689 351.355 401.915 351.355V353.355C402.465 353.355 402.9 353.448 403.246 353.604L404.065 351.779ZM401.915 351.355C400.917 351.355 400 351.556 399.208 352.005L400.194 353.745C400.623 353.501 401.183 353.355 401.915 353.355V351.355ZM399.202 352.008C398.352 352.498 397.798 353.273 397.815 354.297L399.815 354.262C399.812 354.105 399.849 353.943 400.2 353.741L399.202 352.008ZM397.815 354.257C397.798 355.04 398.129 355.708 398.699 356.217L400.031 354.724C399.847 354.561 399.812 354.435 399.815 354.302L397.815 354.257ZM398.709 356.226C399.3 356.738 400.202 357.049 401.224 357.259L401.628 355.3C400.675 355.104 400.204 354.875 400.021 354.715L398.709 356.226ZM401.241 357.262L405.76 358.118L406.132 356.152L401.612 355.297L401.241 357.262ZM405.758 358.117C408.01 358.548 409.547 359.24 410.495 360.104L411.842 358.625C410.51 357.412 408.566 356.618 406.134 356.153L405.758 358.117ZM410.499 360.107C411.417 360.936 411.901 362.031 411.909 363.493L413.909 363.481C413.898 361.523 413.22 359.869 411.839 358.622L410.499 360.107ZM411.909 363.481C411.901 364.879 411.49 366.059 410.691 367.064L412.257 368.309C413.351 366.932 413.898 365.312 413.909 363.494L411.909 363.481ZM410.688 367.068C409.875 368.102 408.743 368.932 407.25 369.539L408.002 371.392C409.766 370.675 411.2 369.653 412.26 368.305L410.688 367.068ZM407.255 369.537C405.765 370.133 404.031 370.443 402.037 370.443V372.443C404.237 372.443 406.23 372.101 407.997 371.394L407.255 369.537ZM402.037 370.443C398.813 370.443 396.4 369.78 394.691 368.566L393.533 370.197C395.693 371.731 398.563 372.443 402.037 372.443V370.443ZM394.696 368.57C392.996 367.346 392.048 365.744 391.807 363.706L389.821 363.941C390.129 366.545 391.38 368.647 393.528 370.193L394.696 368.57ZM390.839 364.823L398.214 364.64L398.164 362.64L390.789 362.823L390.839 364.823ZM397.207 363.827C397.417 364.928 397.983 365.823 398.908 366.43L400.006 364.759C399.566 364.47 399.288 364.062 399.172 363.453L397.207 363.827ZM398.908 366.43C399.795 367.013 400.871 367.266 402.068 367.266V365.266C401.147 365.266 400.482 365.072 400.006 364.759L398.908 366.43ZM402.068 367.266C403.14 367.266 404.112 367.068 404.914 366.592L403.894 364.872C403.495 365.109 402.909 365.266 402.068 365.266V367.266ZM404.914 366.592C405.749 366.097 406.303 365.335 406.32 364.329L404.32 364.295C404.317 364.47 404.26 364.655 403.894 364.872L404.914 366.592ZM406.32 364.293C406.303 363.422 405.893 362.708 405.185 362.221L404.051 363.868C404.259 364.012 404.317 364.143 404.32 364.331L406.32 364.293ZM405.197 362.229C404.563 361.778 403.676 361.49 402.649 361.298L402.28 363.264C403.208 363.438 403.757 363.659 404.038 363.859L405.197 362.229ZM402.652 361.299L398.559 360.52L398.185 362.485L402.278 363.263L402.652 361.299ZM398.551 360.518C396.311 360.111 394.78 359.382 393.827 358.428L392.412 359.842C393.76 361.19 395.731 362.038 398.194 362.486L398.551 360.518ZM393.83 358.431C392.885 357.479 392.401 356.267 392.409 354.713L390.409 354.701C390.398 356.73 391.053 358.471 392.409 359.839L393.83 358.431ZM392.409 354.701C392.4 353.325 392.763 352.209 393.457 351.297L391.866 350.085C390.871 351.392 390.398 352.954 390.409 354.714L392.409 354.701ZM393.46 351.293C394.171 350.35 395.205 349.597 396.62 349.061L395.911 347.191C394.21 347.835 392.842 348.792 391.863 350.089L393.46 351.293ZM396.62 349.061C398.038 348.523 399.75 348.24 401.778 348.24V346.24C399.57 346.24 397.608 346.547 395.911 347.191L396.62 349.061ZM401.778 348.24C404.825 348.24 407.097 348.881 408.702 350.049L409.879 348.432C407.819 346.933 405.083 346.24 401.778 346.24V348.24ZM408.705 350.051C410.292 351.198 411.163 352.75 411.333 354.79L413.326 354.624C413.109 352.022 411.953 349.93 409.876 348.43L408.705 350.051ZM424.205 366.724L425.202 366.805L425.29 365.724H424.205V366.724ZM424.068 368.419L425.064 368.506L425.065 368.5L424.068 368.419ZM423.32 372.527L422.357 372.255L422.355 372.264L423.32 372.527ZM422.144 376.146L421.212 375.782L422.144 376.146ZM421.151 378.635V379.635H421.82L422.075 379.017L421.151 378.635ZM416.448 378.635L415.484 378.369L415.135 379.635H416.448V378.635ZM417.105 376.146L416.138 375.888L416.136 375.897L417.105 376.146ZM417.899 372.527L416.915 372.348L417.899 372.527ZM418.311 368.435L419.311 368.457L419.311 368.453L418.311 368.435ZM418.342 366.724V365.724H417.359L417.342 366.707L418.342 366.724ZM423.209 366.644L423.071 368.339L425.065 368.5L425.202 366.805L423.209 366.644ZM423.072 368.333C422.955 369.676 422.717 370.983 422.357 372.255L424.282 372.799C424.676 371.404 424.937 369.972 425.064 368.506L423.072 368.333ZM422.355 372.264C421.996 373.58 421.614 374.752 421.212 375.782L423.075 376.51C423.508 375.402 423.91 374.161 424.284 372.79L422.355 372.264ZM421.212 375.782C420.796 376.849 420.468 377.671 420.227 378.253L422.075 379.017C422.323 378.418 422.657 377.581 423.075 376.51L421.212 375.782ZM421.151 377.635H416.448V379.635H421.151V377.635ZM417.412 378.901C417.577 378.302 417.798 377.466 418.073 376.395L416.136 375.897C415.862 376.964 415.645 377.787 415.484 378.369L417.412 378.901ZM418.071 376.404C418.364 375.304 418.635 374.07 418.883 372.706L416.915 372.348C416.674 373.671 416.415 374.851 416.139 375.888L418.071 376.404ZM418.883 372.706C419.137 371.31 419.279 369.893 419.311 368.457L417.311 368.413C417.282 369.745 417.15 371.057 416.915 372.348L418.883 372.706ZM419.311 368.453L419.341 366.742L417.342 366.707L417.311 368.417L419.311 368.453ZM418.342 367.724H424.205V365.724H418.342V367.724Z" fill="#474747" mask="url(#path-24-outside-2_36_2)"/>
<defs>
<filter id="filter0_d_36_2" x="467" y="125" width="98" height="44" filterUnits="userSpaceOnUse" color-interpolation-filters="sRGB">
<feFlood flood-opacity="0" result="BackgroundImageFix"/>
<feColorMatrix in="SourceAlpha" type="matrix" values="0 0 0 0 0 0 0 0 0 0 0 0 0 0 0 0 0 0 127 0" result="hardAlpha"/>
<feOffset dy="4"/>
<feGaussianBlur stdDeviation="2"/>
<feComposite in2="hardAlpha" operator="out"/>
<feColorMatrix type="matrix" values="0 0 0 0 0 0 0 0 0 0 0 0 0 0 0 0 0 0 0.25 0"/>
<feBlend mode="normal" in2="BackgroundImageFix" result="effect1_dropShadow_36_2"/>
<feBlend mode="normal" in="SourceGraphic" in2="effect1_dropShadow_36_2" result="shape"/>
</filter>
<filter id="filter1_d_36_2" x="467" y="127.5" width="16" height="16" filterUnits="userSpaceOnUse" color-interpolation-filters="sRGB">
<feFlood flood-opacity="0" result="BackgroundImageFix"/>
<feColorMatrix in="SourceAlpha" type="matrix" values="0 0 0 0 0 0 0 0 0 0 0 0 0 0 0 0 0 0 127 0" result="hardAlpha"/>
<feOffset dy="4"/>
<feGaussianBlur stdDeviation="2"/>
<feComposite in2="hardAlpha" operator="out"/>
<feColorMatrix type="matrix" values="0 0 0 0 0 0 0 0 0 0 0 0 0 0 0 0 0 0 0.25 0"/>
<feBlend mode="normal" in2="BackgroundImageFix" result="effect1_dropShadow_36_2"/>
<feBlend mode="normal" in="SourceGraphic" in2="effect1_dropShadow_36_2" result="shape"/>
</filter>
<filter id="filter2_d_36_2" x="525.5" y="150.5" width="16" height="16" filterUnits="userSpaceOnUse" color-interpolation-filters="sRGB">
<feFlood flood-opacity="0" result="BackgroundImageFix"/>
<feColorMatrix in="SourceAlpha" type="matrix" values="0 0 0 0 0 0 0 0 0 0 0 0 0 0 0 0 0 0 127 0" result="hardAlpha"/>
<feOffset dy="4"/>
<feGaussianBlur stdDeviation="2"/>
<feComposite in2="hardAlpha" operator="out"/>
<feColorMatrix type="matrix" values="0 0 0 0 0 0 0 0 0 0 0 0 0 0 0 0 0 0 0.25 0"/>
<feBlend mode="normal" in2="BackgroundImageFix" result="effect1_dropShadow_36_2"/>
<feBlend mode="normal" in="SourceGraphic" in2="effect1_dropShadow_36_2" result="shape"/>
</filter>
<filter id="filter3_d_36_2" x="548.17" y="152.254" width="16.8301" height="15.6053" filterUnits="userSpaceOnUse" color-interpolation-filters="sRGB">
<feFlood flood-opacity="0" result="BackgroundImageFix"/>
<feColorMatrix in="SourceAlpha" type="matrix" values="0 0 0 0 0 0 0 0 0 0 0 0 0 0 0 0 0 0 127 0" result="hardAlpha"/>
<feOffset dy="4"/>
<feGaussianBlur stdDeviation="2"/>
<feComposite in2="hardAlpha" operator="out"/>
<feColorMatrix type="matrix" values="0 0 0 0 0 0 0 0 0 0 0 0 0 0 0 0 0 0 0.25 0"/>
<feBlend mode="normal" in2="BackgroundImageFix" result="effect1_dropShadow_36_2"/>
<feBlend mode="normal" in="SourceGraphic" in2="effect1_dropShadow_36_2" result="shape"/>
</filter>
<filter id="filter4_d_36_2" x="493" y="125" width="25.5" height="18.3291" filterUnits="userSpaceOnUse" color-interpolation-filters="sRGB">
<feFlood flood-opacity="0" result="BackgroundImageFix"/>
<feColorMatrix in="SourceAlpha" type="matrix" values="0 0 0 0 0 0 0 0 0 0 0 0 0 0 0 0 0 0 127 0" result="hardAlpha"/>
<feOffset dy="4"/>
<feGaussianBlur stdDeviation="2"/>
<feComposite in2="hardAlpha" operator="out"/>
<feColorMatrix type="matrix" values="0 0 0 0 0 0 0 0 0 0 0 0 0 0 0 0 0 0 0.25 0"/>
<feBlend mode="normal" in2="BackgroundImageFix" result="effect1_dropShadow_36_2"/>
<feBlend mode="normal" in="SourceGraphic" in2="effect1_dropShadow_36_2" result="shape"/>
</filter>
<filter id="filter5_d_36_2" x="504.5" y="139.066" width="28.5" height="21.4341" filterUnits="userSpaceOnUse" color-interpolation-filters="sRGB">
<feFlood flood-opacity="0" result="BackgroundImageFix"/>
<feColorMatrix in="SourceAlpha" type="matrix" values="0 0 0 0 0 0 0 0 0 0 0 0 0 0 0 0 0 0 127 0" result="hardAlpha"/>
<feOffset dy="4"/>
<feGaussianBlur stdDeviation="2"/>
<feComposite in2="hardAlpha" operator="out"/>
<feColorMatrix type="matrix" values="0 0 0 0 0 0 0 0 0 0 0 0 0 0 0 0 0 0 0.25 0"/>
<feBlend mode="normal" in2="BackgroundImageFix" result="effect1_dropShadow_36_2"/>
<feBlend mode="normal" in="SourceGraphic" in2="effect1_dropShadow_36_2" result="shape"/>
</filter>
<filter id="filter6_d_36_2" x="487.488" y="154.443" width="18.0122" height="14.5569" filterUnits="userSpaceOnUse" color-interpolation-filters="sRGB">
<feFlood flood-opacity="0" result="BackgroundImageFix"/>
<feColorMatrix in="SourceAlpha" type="matrix" values="0 0 0 0 0 0 0 0 0 0 0 0 0 0 0 0 0 0 127 0" result="hardAlpha"/>
<feOffset dy="4"/>
<feGaussianBlur stdDeviation="2"/>
<feComposite in2="hardAlpha" operator="out"/>
<feColorMatrix type="matrix" values="0 0 0 0 0 0 0 0 0 0 0 0 0 0 0 0 0 0 0.25 0"/>
<feBlend mode="normal" in2="BackgroundImageFix" result="effect1_dropShadow_36_2"/>
<feBlend mode="normal" in="SourceGraphic" in2="effect1_dropShadow_36_2" result="shape"/>
</filter>
<filter id="filter7_d_36_2" x="486.702" y="136" width="15.7991" height="14" filterUnits="userSpaceOnUse" color-interpolation-filters="sRGB">
<feFlood flood-opacity="0" result="BackgroundImageFix"/>
<feColorMatrix in="SourceAlpha" type="matrix" values="0 0 0 0 0 0 0 0 0 0 0 0 0 0 0 0 0 0 127 0" result="hardAlpha"/>
<feOffset dy="4"/>
<feGaussianBlur stdDeviation="2"/>
<feComposite in2="hardAlpha" operator="out"/>
<feColorMatrix type="matrix" values="0 0 0 0 0 0 0 0 0 0 0 0 0 0 0 0 0 0 0.25 0"/>
<feBlend mode="normal" in2="BackgroundImageFix" result="effect1_dropShadow_36_2"/>
<feBlend mode="normal" in="SourceGraphic" in2="effect1_dropShadow_36_2" result="shape"/>
</filter>
</defs>
</svg>
