<svg width="173" height="119" viewBox="0 0 173 119" fill="none" xmlns="http://www.w3.org/2000/svg">
<path d="M173 66.9998C173 96.2709 138 104 91.6293 106.997C45.5135 106.997 7.5 74.7709 7.5 45.4998C7.5 16.2288 53.6293 -22.9999 91.6293 20C129.629 62.9998 170 41 173 66.9998Z" fill="#EAF3FA"/>
<rect x="54.1696" y="27.2872" width="61.3515" height="89.2474" rx="7" transform="rotate(-9 54.1696 27.2872)" fill="white" stroke="#81ABE5" stroke-width="6"/>
<rect x="68" y="53.4138" width="41" height="3" rx="1.5" transform="rotate(-9 68 53.4138)" fill="#566069"/>
<rect x="70" y="63.4138" width="41" height="3" rx="1.5" transform="rotate(-9 70 63.4138)" fill="#566069"/>
<rect x="72" y="73.4138" width="41" height="3" rx="1.5" transform="rotate(-9 72 73.4138)" fill="#566069"/>
<rect x="74" y="83.4138" width="24.9459" height="3" rx="1.5" transform="rotate(-9 74 83.4138)" fill="#566069"/>
<rect x="67.4692" y="18.3696" width="29.655" height="12.1532" rx="2" transform="rotate(-9 67.4692 18.3696)" fill="#78ADF1"/>
<circle cx="82.5" cy="17.5" r="4.5" fill="#D9D9D9" stroke="#78ADF1" stroke-width="4"/>
<path d="M31.5329 51.1458L37.4302 56.5577L30.4941 59.0823L31.5329 51.1458Z" stroke="#718FC5" stroke-width="2"/>
<path d="M162.163 114.526L158.472 107.424L165.853 107.424L162.163 114.526Z" stroke="#718FC5" stroke-width="2"/>
<path d="M7 86C7 87.6569 5.65685 89 4 89C2.34315 89 1 87.6569 1 86C1 84.3431 2.34315 83 4 83C5.65685 83 7 84.3431 7 86Z" stroke="#BDC9E1" stroke-width="2"/>
<path d="M37 113C37 114.657 35.6569 116 34 116C32.3431 116 31 114.657 31 113C31 111.343 32.3431 110 34 110C35.6569 110 37 111.343 37 113Z" stroke="#BDC9E1" stroke-width="2"/>
<path d="M141 10C141 11.1046 140.105 12 139 12C137.895 12 137 11.1046 137 10C137 8.89543 137.895 8 139 8C140.105 8 141 8.89543 141 10Z" stroke="#BDC9E1" stroke-width="2"/>
<path d="M158.275 37.9165C159.967 36.4965 162.49 36.7172 163.91 38.4095L168.569 43.9619C169.989 45.6542 169.769 48.1773 168.076 49.5973L123.508 86.995L113.706 75.3142L158.275 37.9165Z" fill="#A1D4FF"/>
<path d="M166.214 41.1735L168.557 43.9652C169.977 45.6575 169.756 48.1805 168.064 49.6005L123.487 87.0048L118.573 81.1489L166.214 41.1735Z" fill="#4A94F5"/>
<rect x="153.723" y="41.7913" width="15.1415" height="5.04536" transform="rotate(50 153.723 41.7913)" fill="#98E7E5"/>
<path d="M107.752 91.4763C106.921 91.7117 106.203 90.8553 106.579 90.0785L113.058 76.6934C113.374 76.0406 114.258 75.9308 114.724 76.4863L122.552 85.8148C123.018 86.3703 122.756 87.2218 122.059 87.4196L107.752 91.4763Z" fill="#566069"/>
<path fill-rule="evenodd" clip-rule="evenodd" d="M109.528 83.9858L114.264 89.6297L123.545 86.9982L113.731 75.3029L109.528 83.9858Z" fill="#D5EDF7"/>
</svg>
