<svg width="272" height="121" viewBox="0 0 272 121" fill="none" xmlns="http://www.w3.org/2000/svg">
<path d="M222.625 106.5H244.375" stroke="white" stroke-width="3" stroke-linecap="round" stroke-linejoin="round"/>
<path d="M222.625 113.75H244.375" stroke="white" stroke-width="3" stroke-linecap="round" stroke-linejoin="round"/>
<path d="M222.625 99.25H244.375" stroke="white" stroke-width="3" stroke-linecap="round" stroke-linejoin="round"/>
<path d="M185.375 106.5H170.875" stroke="white" stroke-width="3" stroke-linecap="round" stroke-linejoin="round"/>
<path d="M185.375 113.75H168.458" stroke="white" stroke-width="3" stroke-linecap="round" stroke-linejoin="round"/>
<path d="M185.375 99.25H163.625" stroke="white" stroke-width="3" stroke-linecap="round" stroke-linejoin="round"/>
<path d="M58.125 106.5H43.625" stroke="white" stroke-width="3" stroke-linecap="round" stroke-linejoin="round"/>
<path d="M60.5417 113.75H43.625" stroke="white" stroke-width="3" stroke-linecap="round" stroke-linejoin="round"/>
<path d="M65.375 99.25H43.625" stroke="white" stroke-width="3" stroke-linecap="round" stroke-linejoin="round"/>
<path d="M120.542 106.5H108.458" stroke="white" stroke-width="3" stroke-linecap="round" stroke-linejoin="round"/>
<path d="M122.958 113.75H106.042" stroke="white" stroke-width="3" stroke-linecap="round" stroke-linejoin="round"/>
<path d="M125.375 99.25H103.625" stroke="white" stroke-width="3" stroke-linecap="round" stroke-linejoin="round"/>
<path d="M164.625 15.5H164.637" stroke="white" stroke-width="3" stroke-linecap="round" stroke-linejoin="round"/>
<path d="M164.625 22.75H164.637" stroke="white" stroke-width="3" stroke-linecap="round" stroke-linejoin="round"/>
<path d="M164.625 8.25H164.637" stroke="white" stroke-width="3" stroke-linecap="round" stroke-linejoin="round"/>
<path d="M170.667 15.5H186.375" stroke="white" stroke-width="3" stroke-linecap="round" stroke-linejoin="round"/>
<path d="M170.667 22.75H186.375" stroke="white" stroke-width="3" stroke-linecap="round" stroke-linejoin="round"/>
<path d="M170.667 8.25H186.375" stroke="white" stroke-width="3" stroke-linecap="round" stroke-linejoin="round"/>
<g clip-path="url(#clip0_21_73)">
<path d="M234.083 16.7083C234.602 17.4021 235.264 17.9761 236.025 18.3915C236.785 18.8068 237.626 19.0538 238.49 19.1157C239.354 19.1776 240.221 19.0529 241.033 18.7502C241.845 18.4474 242.582 17.9735 243.194 17.3608L246.819 13.7358C247.92 12.5964 248.529 11.0702 248.515 9.48612C248.501 7.90201 247.866 6.38669 246.746 5.26651C245.625 4.14634 244.11 3.51094 242.526 3.49718C240.942 3.48341 239.416 4.09238 238.276 5.19292L236.198 7.25917" stroke="white" stroke-width="3" stroke-linecap="round" stroke-linejoin="round"/>
<path d="M238.917 14.2917C238.398 13.5979 237.736 13.0239 236.975 12.6085C236.215 12.1932 235.374 11.9462 234.51 11.8843C233.646 11.8224 232.779 11.9471 231.967 12.2499C231.155 12.5526 230.418 13.0265 229.806 13.6392L226.181 17.2642C225.08 18.4036 224.471 19.9298 224.485 21.5139C224.499 23.098 225.134 24.6133 226.254 25.7335C227.375 26.8537 228.89 27.4891 230.474 27.5028C232.058 27.5166 233.584 26.9076 234.724 25.8071L236.79 23.7408" stroke="white" stroke-width="3" stroke-linecap="round" stroke-linejoin="round"/>
</g>
<path d="M189.25 50.8333V58.0833C189.25 60.0061 190.014 61.8502 191.373 63.2098C192.733 64.5695 194.577 65.3333 196.5 65.3333C198.423 65.3333 200.267 64.5695 201.627 63.2098C202.986 61.8502 203.75 60.0061 203.75 58.0833V50.8333" stroke="white" stroke-width="3" stroke-linecap="round" stroke-linejoin="round"/>
<path d="M186.833 70.1667H206.167" stroke="white" stroke-width="3" stroke-linecap="round" stroke-linejoin="round"/>
<path d="M253.875 59.2917L246.625 66.5417V70.1667H257.5L261.125 66.5417" stroke="white" stroke-width="3" stroke-linecap="round" stroke-linejoin="round"/>
<path d="M269.583 60.5L264.025 66.0583C263.573 66.5011 262.966 66.7491 262.333 66.7491C261.701 66.7491 261.093 66.5011 260.642 66.0583L254.358 59.775C253.916 59.3232 253.667 58.7159 253.667 58.0833C253.667 57.4507 253.916 56.8434 254.358 56.3916L259.917 50.8333" stroke="white" stroke-width="3" stroke-linecap="round" stroke-linejoin="round"/>
<path d="M140.333 50.8333H131.875C131.295 50.833 130.723 50.9719 130.208 51.2384C129.693 51.5049 129.249 51.8911 128.914 52.3646C128.579 52.8382 128.362 53.3852 128.282 53.9598C128.203 54.5344 128.262 55.1197 128.455 55.6666" stroke="white" stroke-width="3" stroke-linecap="round" stroke-linejoin="round"/>
<path d="M137.917 60.5C139.199 60.5 140.428 61.0092 141.334 61.9157C142.241 62.8221 142.75 64.0515 142.75 65.3333C142.75 66.6152 142.241 67.8446 141.334 68.751C140.428 69.6574 139.199 70.1667 137.917 70.1667H128.25" stroke="white" stroke-width="3" stroke-linecap="round" stroke-linejoin="round"/>
<path d="M125.833 60.5H145.167" stroke="white" stroke-width="2" stroke-linecap="round" stroke-linejoin="round"/>
<path d="M119.333 4.625C118.692 4.625 118.078 4.87961 117.624 5.33283C117.171 5.78604 116.917 6.40073 116.917 7.04167V14.2917C116.917 14.9326 117.171 15.5473 117.624 16.0005C118.078 16.4537 118.692 16.7083 119.333 16.7083C119.654 16.7083 119.961 16.8356 120.188 17.0622C120.414 17.2889 120.542 17.5962 120.542 17.9167V19.125C120.542 19.7659 120.287 20.3806 119.834 20.8338C119.381 21.2871 118.766 21.5417 118.125 21.5417C117.804 21.5417 117.497 21.669 117.271 21.8956C117.044 22.1222 116.917 22.4295 116.917 22.75V25.1667C116.917 25.4871 117.044 25.7945 117.271 26.0211C117.497 26.2477 117.804 26.375 118.125 26.375C120.048 26.375 121.892 25.6112 123.251 24.2515C124.611 22.8919 125.375 21.0478 125.375 19.125V7.04167C125.375 6.40073 125.12 5.78604 124.667 5.33283C124.214 4.87961 123.599 4.625 122.958 4.625H119.333Z" stroke="white" stroke-width="3" stroke-linecap="round" stroke-linejoin="round"/>
<path d="M106.042 4.625C105.401 4.625 104.786 4.87961 104.333 5.33283C103.88 5.78604 103.625 6.40073 103.625 7.04167V14.2917C103.625 14.9326 103.88 15.5473 104.333 16.0005C104.786 16.4537 105.401 16.7083 106.042 16.7083C106.362 16.7083 106.669 16.8356 106.896 17.0622C107.123 17.2889 107.25 17.5962 107.25 17.9167V19.125C107.25 19.7659 106.995 20.3806 106.542 20.8338C106.089 21.2871 105.474 21.5417 104.833 21.5417C104.513 21.5417 104.206 21.669 103.979 21.8956C103.752 22.1222 103.625 22.4295 103.625 22.75V25.1667C103.625 25.4871 103.752 25.7945 103.979 26.0211C104.206 26.2477 104.513 26.375 104.833 26.375C106.756 26.375 108.6 25.6112 109.96 24.2515C111.319 22.8919 112.083 21.0478 112.083 19.125V7.04167C112.083 6.40073 111.829 5.78604 111.376 5.33283C110.922 4.87961 110.308 4.625 109.667 4.625H106.042Z" stroke="white" stroke-width="3" stroke-linecap="round" stroke-linejoin="round"/>
<path d="M43.8334 14.5H53.5" stroke="white" stroke-width="3" stroke-linecap="round" stroke-linejoin="round"/>
<path d="M43.8334 21.75V7.25" stroke="white" stroke-width="3" stroke-linecap="round" stroke-linejoin="round"/>
<path d="M53.5 21.75V7.25" stroke="white" stroke-width="3" stroke-linecap="round" stroke-linejoin="round"/>
<path d="M59.5416 14.5L63.1666 12.0833V21.75" stroke="white" stroke-width="3" stroke-linecap="round" stroke-linejoin="round"/>
<path d="M82.9584 50.8333H72.0834" stroke="white" stroke-width="3" stroke-linecap="round" stroke-linejoin="round"/>
<path d="M76.9166 70.1667H66.0416" stroke="white" stroke-width="3" stroke-linecap="round" stroke-linejoin="round"/>
<path d="M78.125 50.8333L70.875 70.1666" stroke="white" stroke-width="3" stroke-linecap="round" stroke-linejoin="round"/>
<path d="M7.25 60.5H18.125C19.4069 60.5 20.6363 61.0092 21.5427 61.9156C22.4491 62.8221 22.9583 64.0514 22.9583 65.3333C22.9583 66.6152 22.4491 67.8446 21.5427 68.751C20.6363 69.6574 19.4069 70.1666 18.125 70.1666H8.45833C8.13786 70.1666 7.83052 70.0393 7.60391 69.8127C7.37731 69.5861 7.25 69.2788 7.25 68.9583V52.0416C7.25 51.7212 7.37731 51.4138 7.60391 51.1872C7.83052 50.9606 8.13786 50.8333 8.45833 50.8333H16.9167C18.1985 50.8333 19.4279 51.3425 20.3343 52.249C21.2408 53.1554 21.75 54.3848 21.75 55.6666C21.75 56.9485 21.2408 58.1779 20.3343 59.0843C19.4279 59.9908 18.1985 60.5 16.9167 60.5" stroke="white" stroke-width="3" stroke-linecap="round" stroke-linejoin="round"/>
<defs>
<clipPath id="clip0_21_73">
<rect width="29" height="29" fill="white" transform="translate(222 1)"/>
</clipPath>
</defs>
</svg>
