<svg width="222" height="132" viewBox="0 0 222 132" fill="none" xmlns="http://www.w3.org/2000/svg">
<rect x="71" y="61" width="148" height="12" rx="6" fill="#D9D9D9" fill-opacity="0.2"/>
<line x1="68" y1="67" x2="222" y2="67" stroke="white" stroke-opacity="0.2" stroke-width="2"/>
<rect x="70" y="9" width="150" height="20" rx="10" fill="white" fill-opacity="0.5"/>
<rect x="83" y="102" width="128" height="8" rx="4" fill="white" fill-opacity="0.5"/>
<rect x="83" y="118" width="62" height="8" rx="4" fill="white" fill-opacity="0.5"/>
<path d="M11.6 30L17.744 7.632H20.656L14.512 30H11.6ZM2.16 23.952L2.928 21.136H20.592L19.824 23.952H2.16ZM4.144 30L10.256 7.632H13.168L7.056 30H4.144ZM4.176 16.464L4.976 13.648H22.64L21.872 16.464H4.176ZM32.4125 30L38.5565 7.632H41.4685L35.3245 30H32.4125ZM22.9725 23.952L23.7405 21.136H41.4045L40.6365 23.952H22.9725ZM24.9565 30L31.0685 7.632H33.9805L27.8685 30H24.9565ZM24.9885 16.464L25.7885 13.648H43.4525L42.6845 16.464H24.9885Z" fill="white"/>
<path d="M14.016 122.76V119.72L26.72 115.112L14.016 110.536V107.496L30.496 113.704V116.52L14.016 122.76Z" fill="white"/>
<path d="M13.92 68.8C13.1947 68.8 12.512 68.672 11.872 68.416C11.2533 68.16 10.6667 67.8613 10.112 67.52C9.57867 67.1573 9.056 66.848 8.544 66.592C8.032 66.3147 7.52 66.176 7.008 66.176C6.41067 66.176 5.89867 66.4 5.472 66.848C5.06667 67.296 4.85333 67.9147 4.832 68.704H2.048C2.06933 67.5307 2.31467 66.56 2.784 65.792C3.25333 65.0027 3.85067 64.416 4.576 64.032C5.32267 63.6267 6.09067 63.424 6.88 63.424C7.62667 63.424 8.30933 63.5627 8.928 63.84C9.568 64.096 10.1547 64.3947 10.688 64.736C11.2427 65.0773 11.776 65.3867 12.288 65.664C12.8 65.92 13.312 66.048 13.824 66.048C14.4213 66.048 14.9227 65.824 15.328 65.376C15.7333 64.928 15.9467 64.32 15.968 63.552H18.784C18.7413 64.6613 18.4853 65.6107 18.016 66.4C17.568 67.1893 16.9813 67.7867 16.256 68.192C15.5307 68.5973 14.752 68.8 13.92 68.8ZM34.7325 68.8C34.0072 68.8 33.3245 68.672 32.6845 68.416C32.0658 68.16 31.4792 67.8613 30.9245 67.52C30.3912 67.1573 29.8685 66.848 29.3565 66.592C28.8445 66.3147 28.3325 66.176 27.8205 66.176C27.2232 66.176 26.7112 66.4 26.2845 66.848C25.8792 67.296 25.6658 67.9147 25.6445 68.704H22.8605C22.8818 67.5307 23.1272 66.56 23.5965 65.792C24.0658 65.0027 24.6632 64.416 25.3885 64.032C26.1352 63.6267 26.9032 63.424 27.6925 63.424C28.4392 63.424 29.1218 63.5627 29.7405 63.84C30.3805 64.096 30.9672 64.3947 31.5005 64.736C32.0552 65.0773 32.5885 65.3867 33.1005 65.664C33.6125 65.92 34.1245 66.048 34.6365 66.048C35.2338 66.048 35.7352 65.824 36.1405 65.376C36.5458 64.928 36.7592 64.32 36.7805 63.552H39.5965C39.5538 64.6613 39.2978 65.6107 38.8285 66.4C38.3805 67.1893 37.7938 67.7867 37.0685 68.192C36.3432 68.5973 35.5645 68.8 34.7325 68.8Z" fill="white"/>
<rect x="71" y="95" width="4" height="37" fill="white"/>
</svg>
