<svg width="225" height="154" viewBox="0 0 225 154" fill="none" xmlns="http://www.w3.org/2000/svg">
<path d="M6.976 150.104H5.664V147.512H6.656C7.57333 147.512 8.30933 147.224 8.864 146.648C9.41867 146.051 9.696 145.208 9.696 144.12V141.496C9.696 140.28 10.0053 139.299 10.624 138.552C11.264 137.784 12.0747 137.261 13.056 136.984L13.088 137.752C12.1067 137.496 11.296 136.995 10.656 136.248C10.016 135.48 9.696 134.477 9.696 133.24V130.616C9.696 129.592 9.41867 128.771 8.864 128.152C8.30933 127.533 7.57333 127.224 6.656 127.224H5.664V124.664H6.976C8.14933 124.664 9.17333 124.899 10.048 125.368C10.944 125.837 11.6373 126.499 12.128 127.352C12.64 128.205 12.896 129.229 12.896 130.424V133.656C12.896 134.296 13.1307 134.872 13.6 135.384C14.0693 135.875 14.6667 136.173 15.392 136.28V138.52C14.6667 138.627 14.0693 138.915 13.6 139.384C13.1307 139.832 12.896 140.397 12.896 141.08V144.312C12.896 145.549 12.64 146.595 12.128 147.448C11.6373 148.301 10.944 148.952 10.048 149.4C9.17333 149.869 8.14933 150.104 6.976 150.104Z" fill="white"/>
<path d="M14.824 33.104C13.672 33.104 12.648 32.8693 11.752 32.4C10.856 31.952 10.152 31.3013 9.64 30.448C9.14933 29.5947 8.904 28.5493 8.904 27.312V24.08C8.904 23.3973 8.68 22.832 8.232 22.384C7.784 21.9147 7.18667 21.6267 6.44 21.52V19.28C7.18667 19.1733 7.784 18.8747 8.232 18.384C8.68 17.872 8.904 17.296 8.904 16.656V13.424C8.904 12.2293 9.16 11.2053 9.672 10.352C10.184 9.49867 10.888 8.83733 11.784 8.368C12.68 7.89867 13.6933 7.664 14.824 7.664H16.136V10.224H15.176C14.2587 10.224 13.512 10.5333 12.936 11.152C12.3813 11.7707 12.104 12.592 12.104 13.616V16.24C12.104 17.4773 11.7947 18.48 11.176 19.248C10.5573 19.9947 9.74667 20.496 8.744 20.752V19.984C9.74667 20.2613 10.5573 20.784 11.176 21.552C11.7947 22.2987 12.104 23.28 12.104 24.496V27.12C12.104 28.208 12.3813 29.0507 12.936 29.648C13.512 30.224 14.2587 30.512 15.176 30.512H16.136V33.104H14.824Z" fill="white"/>
<rect x="25" y="42" width="53" height="13" rx="6.5" fill="white" fill-opacity="0.4"/>
<rect x="86" y="42" width="58" height="13" rx="6.5" fill="white" fill-opacity="0.5"/>
<rect x="49" y="62" width="79" height="13" rx="6.5" fill="white"/>
<rect x="23" y="82" width="90" height="13" rx="6.5" fill="white" fill-opacity="0.4"/>
<rect x="49" y="102" width="58" height="13" rx="6.5" fill="white"/>
<rect x="135" y="62" width="49" height="13" rx="6.5" fill="white"/>
<rect x="191" y="62" width="34" height="13" rx="6.5" fill="white" fill-opacity="0.2"/>
<rect x="122" y="82" width="39" height="13" rx="6.5" fill="white" fill-opacity="0.5"/>
<rect x="113" y="102" width="28" height="13" rx="6.5" fill="white" fill-opacity="0.4"/>
</svg>
