<svg width="227" height="131" viewBox="0 0 227 131" fill="none" xmlns="http://www.w3.org/2000/svg">
<path d="M2.5 69C2.5 63.1074 2.5 60.1612 4.33059 58.3306C6.16116 56.5 9.10744 56.5 15 56.5C20.8925 56.5 23.8389 56.5 25.6694 58.3306C27.5 60.1612 27.5 63.1074 27.5 69C27.5 74.8925 27.5 77.8389 25.6694 79.6694C23.8389 81.5 20.8925 81.5 15 81.5C9.10744 81.5 6.16116 81.5 4.33059 79.6694C2.5 77.8389 2.5 74.8925 2.5 69Z" stroke="white" stroke-width="3"/>
<path d="M2.5 116C2.5 110.107 2.5 107.161 4.33059 105.331C6.16116 103.5 9.10744 103.5 15 103.5C20.8925 103.5 23.8389 103.5 25.6694 105.331C27.5 107.161 27.5 110.107 27.5 116C27.5 121.893 27.5 124.839 25.6694 126.669C23.8389 128.5 20.8925 128.5 15 128.5C9.10744 128.5 6.16116 128.5 4.33059 126.669C2.5 124.839 2.5 121.893 2.5 116Z" stroke="white" stroke-width="3"/>
<rect x="45" y="10" width="182" height="12" rx="6" fill="#D9D9D9" fill-opacity="0.2"/>
<rect x="45" y="52" width="152" height="12" rx="6" fill="white" fill-opacity="0.5"/>
<rect x="45" y="110" width="99" height="12" rx="6" fill="white" fill-opacity="0.5"/>
<rect x="45" y="74" width="122" height="12" rx="6" fill="white" fill-opacity="0.5"/>
<path fill-rule="evenodd" clip-rule="evenodd" d="M15.1667 28.3333C8.48843 28.3333 5.14932 28.3333 3.07467 26.2586C1 24.1841 1 20.8448 1 14.1667C1 7.48843 1 4.14932 3.07467 2.07467C5.14932 -1.6888e-07 8.48843 0 15.1667 0C21.8448 0 25.1841 -1.6888e-07 27.2586 2.07467C29.3333 4.14932 29.3333 7.48843 29.3333 14.1667C29.3333 20.8448 29.3333 24.1841 27.2586 26.2586C25.1841 28.3333 21.8448 28.3333 15.1667 28.3333ZM20.8763 9.8737C21.2912 10.2886 21.2912 10.9614 20.8763 11.3763L13.7929 18.4596C13.378 18.8745 12.7053 18.8745 12.2904 18.4596L9.45703 15.6263C9.0421 15.2113 9.0421 14.5387 9.45703 14.1237C9.87196 13.7088 10.5447 13.7088 10.9596 14.1237L13.0417 16.2057L19.3737 9.8737C19.7887 9.45877 20.4613 9.45877 20.8763 9.8737Z" fill="white"/>
</svg>
